
<svg width="27" height="27" viewBox="0 0 27 27" fill="none" xmlns="http://www.w3.org/2000/svg">
  <rect width="25" height="25" rx="12" transform="matrix(1 0 0 -1 1 26)" fill="white"/>
  <mask id="path-2-outside-1_333_1193" maskUnits="userSpaceOnUse" x="0" y="0" width="27" height="27" fill="black">
    <rect fill="white" width="27" height="27"/>
    <path d="M13.3661 1.00088C12.5643 1.01008 11.7326 1.10257 10.9405 1.26959C8.34686 1.81761 6.03261 3.13498 4.273 5.0657C3.68339 5.71219 3.15822 6.42724 2.71406 7.18784C1.4345 9.37761 0.853642 11.855 1.03131 14.3691C1.0847 15.1256 1.21127 15.8977 1.40183 16.6307C2.11064 19.3524 3.68339 21.7272 5.89821 23.4204C6.66963 24.0103 7.53356 24.5225 8.43431 24.9232C10.5838 25.8808 12.9353 26.2075 15.2601 25.872C15.9864 25.7671 16.7132 25.5969 17.4142 25.3663C19.5052 24.6789 21.3509 23.4738 22.8067 21.8463C24.2184 20.2671 25.2222 18.3268 25.6899 16.2727C25.9633 15.0704 26.0558 13.852 25.9679 12.616C25.8763 11.3254 25.5817 10.0503 25.0975 8.84294C24.3413 6.95915 23.1773 5.32982 21.6556 4.0258C20.2891 2.8543 18.6477 1.97176 16.9148 1.47619C15.7614 1.14674 14.567 0.986612 13.3661 1.00088ZM14.0335 1.3699C14.1826 1.37773 14.2862 1.38371 14.3879 1.39107C16.4775 1.54337 18.4899 2.23956 20.2651 3.42394C22.108 4.65342 23.5561 6.34165 24.4941 8.3552C24.5756 8.53051 24.6299 8.6552 24.6257 8.65935C24.6207 8.66395 24.4591 8.69662 24.3551 8.71364C24.0863 8.75735 23.8608 8.77576 23.5841 8.77576C23.3632 8.77576 23.2173 8.76702 23.0111 8.74125C22.9319 8.73159 22.7469 8.70214 22.7345 8.69708C22.7303 8.6957 22.7142 8.66809 22.699 8.63634C22.5812 8.38971 22.4164 8.09982 22.062 7.51775C22.0091 7.43033 21.9318 7.30103 21.8903 7.23017C21.7748 7.03185 21.7173 6.95041 21.6284 6.85838C21.4784 6.70332 21.3233 6.62969 21.1452 6.62969C20.9864 6.62969 20.8524 6.68537 20.7314 6.80178C20.6122 6.91682 20.5312 7.06636 20.4962 7.23707C20.4529 7.44643 20.4916 7.68064 20.6195 7.98571C20.6324 8.017 20.643 8.04277 20.643 8.04415C20.643 8.04507 20.6237 8.04185 20.6007 8.03678C20.5344 8.02344 20.4276 8.00642 20.3415 7.99583C20.2407 7.98387 19.9977 7.97881 19.8928 7.98663C19.4656 8.0193 19.0348 8.16654 18.5235 8.45413C18.3449 8.55443 18.2786 8.59493 17.7502 8.92668C17.4947 9.08681 17.3235 9.18666 17.1454 9.27961C16.3441 9.69695 15.4424 9.95186 14.5122 10.0227C14.3157 10.0379 14.2218 10.0411 13.976 10.0411C13.7302 10.0411 13.6363 10.0379 13.4398 10.0227C12.6532 9.96244 11.89 9.76965 11.1913 9.454C10.825 9.28835 10.4811 9.10153 9.79901 8.6957C9.25727 8.3736 9.01517 8.23602 8.72658 8.08602C8.51854 7.97789 8.25803 7.85641 8.09509 7.79107C8.05781 7.77635 8.02743 7.763 8.02743 7.76162C8.02743 7.76024 8.05827 7.73586 8.09555 7.70779C8.31004 7.5449 8.51716 7.33554 8.64649 7.15149C8.80897 6.92004 8.91529 6.65362 8.93877 6.42079C8.94613 6.34441 8.94199 6.19717 8.92956 6.12539C8.88722 5.87738 8.77675 5.66203 8.60047 5.4858C8.50381 5.38963 8.40439 5.31831 8.28242 5.2585C8.19221 5.21432 8.13835 5.19408 8.04814 5.17107C7.94366 5.14484 7.87692 5.13656 7.76001 5.13656C7.55151 5.13702 7.41113 5.17291 7.15475 5.29163C6.69817 5.50329 6.28208 5.82998 5.93688 6.24778C5.69385 6.54181 5.49318 6.85792 5.28605 7.27158C5.21563 7.41284 5.21195 7.41882 5.1986 7.4202C5.15948 7.42389 4.96478 7.45656 4.87181 7.4745C4.24676 7.59644 3.65946 7.8219 3.11541 8.14814C2.86871 8.2963 2.63811 8.45965 2.42041 8.64048C2.38681 8.66809 2.35873 8.69017 2.35781 8.68925C2.35689 8.68833 2.37668 8.6414 2.40153 8.5848C3.09378 7.02633 4.1119 5.6174 5.3597 4.49007C6.42707 3.52563 7.65185 2.76457 8.99446 2.23081C10.2768 1.72053 11.6636 1.4242 13.0186 1.37036C13.0872 1.3676 13.1595 1.36484 13.1797 1.36392C13.2621 1.3607 13.9461 1.3653 14.0335 1.3699ZM7.83135 5.49777C7.99705 5.51341 8.15078 5.57645 8.28242 5.68228C8.32891 5.72001 8.40071 5.79639 8.43799 5.84793C8.47527 5.89992 8.5282 6.00391 8.54662 6.06235C8.58068 6.16818 8.59264 6.30438 8.57745 6.41435C8.55858 6.55009 8.49783 6.70884 8.41037 6.85286C8.23363 7.14412 7.95517 7.39766 7.50548 7.67604C7.41389 7.73264 7.33518 7.77865 7.07421 7.92819C6.76675 8.10442 6.60197 8.20703 6.44133 8.32161C6.14078 8.53603 5.92629 8.74953 5.76474 8.99478C5.72009 9.06242 5.70122 9.09463 5.5949 9.28329C5.51987 9.41673 5.45313 9.51197 5.39376 9.56995C5.31597 9.64587 5.20136 9.69879 5.11621 9.69879C4.91692 9.69833 4.85616 9.4747 4.95696 9.1089C4.98642 9.00169 5.1337 8.57652 5.23542 8.30458C5.47983 7.65119 5.72193 7.16207 5.99855 6.76313C6.2784 6.3596 6.56423 6.07339 6.92922 5.83136C7.08203 5.72967 7.25233 5.63765 7.40882 5.57185C7.56348 5.50651 7.69005 5.48442 7.83135 5.49777ZM21.1999 6.9955C21.2809 7.01713 21.3693 7.09167 21.454 7.21038C21.4876 7.25686 21.5286 7.32358 21.5958 7.43953C21.6248 7.48876 21.721 7.64935 21.8103 7.79659C21.9888 8.09108 22.1034 8.28526 22.1904 8.44262C22.4546 8.91794 22.5969 9.26304 22.6461 9.54924C22.6604 9.63345 22.6604 9.78023 22.6456 9.90125C22.5752 10.4865 22.3184 11.0244 21.9111 11.4422C21.7762 11.5803 21.6579 11.6626 21.5516 11.6916C21.5 11.7059 21.4379 11.7031 21.4015 11.6852C21.3666 11.6682 21.333 11.6304 21.3104 11.5835C21.28 11.52 21.2759 11.4984 21.2759 11.399C21.2763 11.2978 21.2805 11.2697 21.3247 11.0861C21.4029 10.7617 21.4397 10.5192 21.4577 10.2164C21.4637 10.1147 21.4637 9.82164 21.4577 9.72041C21.4333 9.30721 21.361 8.92438 21.2358 8.54385C21.1769 8.36532 21.1318 8.25121 21.025 8.0147C20.8837 7.70089 20.8474 7.58309 20.8423 7.42803C20.8405 7.36131 20.8414 7.34336 20.8492 7.30609C20.8796 7.16023 20.9735 7.03415 21.078 6.99826C21.1111 6.98676 21.1631 6.98584 21.1999 6.9955ZM5.03981 7.81224C5.03981 7.81454 5.0191 7.86838 4.99378 7.93141C4.87871 8.21992 4.66837 8.80981 4.61406 8.99708C4.49117 9.42133 4.54226 9.75032 4.75858 9.93162C4.8221 9.98499 4.91093 10.0292 4.98918 10.0462C5.03659 10.0563 5.13831 10.06 5.1894 10.0536C5.31367 10.0374 5.43748 9.98683 5.55071 9.90677C5.6041 9.86904 5.68833 9.78621 5.73896 9.72271C5.80386 9.64035 5.83332 9.59296 5.98336 9.32838C6.12053 9.08589 6.26643 8.91656 6.49887 8.73021C6.69586 8.57284 6.86709 8.46241 7.30296 8.2121C7.43046 8.13893 7.56071 8.06347 7.59247 8.04461C7.62423 8.02574 7.65277 8.0101 7.65599 8.0101C7.65875 8.0101 7.68913 8.02022 7.72319 8.03264C8.05781 8.15366 8.40117 8.31378 8.80943 8.53833C9.01839 8.65336 9.17765 8.74539 9.58038 8.98466C10.3882 9.46412 10.7541 9.66014 11.1821 9.84281C12.1901 10.2721 13.327 10.4608 14.4593 10.3862C15.4249 10.3232 16.356 10.0747 17.1956 9.65646C17.4878 9.51105 17.6282 9.42961 18.1368 9.10936C18.3964 8.94555 18.5465 8.85444 18.6776 8.7799C19.16 8.50612 19.525 8.3782 19.9144 8.34553C19.9991 8.33863 20.214 8.34231 20.2978 8.35244C20.4603 8.37222 20.6214 8.40489 20.7838 8.44998L20.8257 8.46195L20.8359 8.49002C20.9776 8.87331 21.0568 9.22807 21.0922 9.63897C21.1019 9.75354 21.106 10.0605 21.0991 10.1819C21.083 10.4732 21.0517 10.6789 20.9762 10.9964C20.9357 11.1662 20.9215 11.2458 20.9146 11.3396C20.8916 11.6705 21.0462 11.9447 21.3067 12.034C21.3882 12.062 21.4959 12.0694 21.5866 12.0528C21.7118 12.0303 21.8567 11.9608 21.9842 11.8623C22.1103 11.7648 22.288 11.5771 22.4187 11.4031C22.7055 11.0217 22.9016 10.5643 22.9812 10.0931C23.0125 9.90815 23.0249 9.71489 23.0139 9.59756C23.0014 9.47102 22.9674 9.31504 22.919 9.16733C22.9052 9.12454 22.8937 9.08911 22.8937 9.08911C22.8937 9.08911 22.9301 9.09371 22.9747 9.09923C23.3586 9.14709 23.7609 9.14893 24.1526 9.10476C24.3247 9.08543 24.5139 9.05414 24.6837 9.01733C24.7302 9.00721 24.7698 9.0003 24.7721 9.00261C24.7799 9.01043 24.8881 9.29755 24.9534 9.48253C25.2379 10.2924 25.4372 11.1381 25.5444 11.9903C25.5536 12.0648 25.5559 12.0947 25.5523 12.097C25.5435 12.103 25.2554 12.23 25.1003 12.2967C24.0817 12.7329 23.0493 13.1079 21.9925 13.4263C19.601 14.1464 17.1362 14.5569 14.648 14.6498C14.3198 14.6618 14.1923 14.6646 13.732 14.6669C12.8584 14.6715 12.1841 14.648 11.3547 14.585C8.03341 14.3323 4.72728 13.4977 1.68213 12.143C1.42484 12.0284 1.44647 12.0395 1.44831 12.0238C1.55602 11.1809 1.71711 10.464 1.97256 9.69419L2.02963 9.52164L2.1111 9.43191C2.45677 9.0523 2.86411 8.71824 3.30229 8.45597C3.8049 8.15458 4.32685 7.95258 4.91323 7.83248C5.05086 7.80442 5.03981 7.80626 5.03981 7.81224ZM1.58041 12.391C4.16437 13.5395 6.94717 14.3218 9.75299 14.6885C10.6975 14.8123 11.6769 14.8923 12.5906 14.9213C12.6716 14.9236 12.7691 14.9268 12.8069 14.9282C13.1466 14.9406 13.9622 14.9393 14.4086 14.9259C15.6946 14.8873 16.9148 14.7736 18.1667 14.5757C20.6817 14.1782 23.1791 13.442 25.5012 12.4145C25.5467 12.3943 25.5849 12.3786 25.5854 12.3791C25.5882 12.3814 25.6135 12.5981 25.6181 12.6588C25.6208 12.6887 25.6208 12.7177 25.619 12.7232C25.6167 12.7288 25.6176 12.7789 25.6213 12.8346C25.6531 13.3776 25.6448 13.9629 25.5978 14.5242C25.4823 15.8973 25.1316 17.2418 24.5585 18.5035C24.4448 18.7542 24.2377 19.1706 24.2156 19.1923C24.1981 19.2093 24.0803 19.2926 23.98 19.3593C23.5791 19.6243 23.1409 19.8231 22.7124 19.9345C22.503 19.9888 22.3078 20.0219 22.0883 20.0408C21.9644 20.0513 21.7099 20.0513 21.582 20.0408C21.2865 20.0164 21.2561 20.0113 19.8886 19.7684C19.34 19.6708 18.865 19.5871 18.8318 19.5825C18.523 19.5369 18.2031 19.5424 17.8952 19.599C17.4768 19.6759 17.0731 19.8535 16.7445 20.1047C16.6004 20.2147 16.5305 20.2598 16.4085 20.3205C16.3068 20.3711 16.2543 20.3918 16.1231 20.4346C15.9169 20.5023 15.7572 20.5672 15.5662 20.6619C15.1952 20.846 14.8795 21.0669 14.5647 21.3641C14.4965 21.4285 14.4533 21.464 14.3967 21.5021C14.2434 21.6061 14.0897 21.6531 13.9023 21.6531C13.5378 21.6531 13.1535 21.4667 12.7328 21.0866C12.6969 21.0544 12.5832 20.9454 12.4796 20.8442C12.0438 20.4194 11.8537 20.2547 11.6079 20.0877C11.0671 19.72 10.5815 19.6386 10.0876 19.8319C9.93065 19.8935 9.77968 19.9832 9.5026 20.1802C9.08835 20.4747 8.97881 20.5276 8.71277 20.5603C8.42234 20.5957 8.19221 20.6615 7.96253 20.7742C7.84148 20.834 7.7485 20.8902 7.65875 20.9583C7.47464 21.0977 7.27719 21.1759 7.02588 21.2086C6.88135 21.2274 6.63649 21.2297 6.43443 21.2136C6.0142 21.1805 3.95909 21.0024 3.95449 20.9988C3.9347 20.9817 3.68799 20.65 3.55543 20.4613C3.37225 20.2004 3.08826 19.7546 3.07123 19.7012C3.05512 19.6515 3.00173 19.5553 2.94465 19.4739C2.87791 19.3782 2.80841 19.2525 2.66941 18.9774C2.3486 18.341 2.09914 17.718 1.88281 17.0122C1.87498 16.9864 1.86854 16.9643 1.86854 16.9625C1.86854 16.9611 1.87729 16.9597 1.88833 16.9597C1.89938 16.9597 1.9095 16.9588 1.91089 16.9574C1.91227 16.956 1.90582 16.9349 1.89754 16.91C1.87636 16.8502 1.84369 16.7209 1.83402 16.6574L1.82573 16.6059L1.7972 16.6086L1.76866 16.6114L1.74979 16.5382C1.52886 15.692 1.39998 14.8031 1.36684 13.8975C1.35994 13.7148 1.36086 13.6711 1.36915 13.6679C1.37973 13.6642 1.39722 13.6224 1.40551 13.5819C1.42944 13.4645 1.41241 13.3177 1.37329 13.3081L1.36086 13.3049L1.36408 13.1756C1.36915 12.9547 1.38157 12.7279 1.40183 12.478C1.41379 12.3298 1.41471 12.3216 1.4207 12.3216C1.42254 12.3216 1.49434 12.3528 1.58041 12.391ZM23.8184 19.8894C23.783 19.9483 23.6872 20.0978 23.6233 20.1949C22.6176 21.7207 21.2929 22.9888 19.734 23.9178C18.204 24.8298 16.4693 25.4009 14.6848 25.5803C13.8558 25.6636 12.9961 25.6595 12.1717 25.5688C10.4641 25.3802 8.81771 24.8289 7.31815 23.9432C6.27103 23.3247 5.32702 22.5568 4.51464 21.6623C4.42765 21.5666 4.27576 21.394 4.27714 21.3922C4.2776 21.3917 4.73695 21.4304 5.29756 21.4782C6.61624 21.591 6.48644 21.5813 6.7244 21.5817C6.96927 21.5817 7.06822 21.573 7.24221 21.5357C7.47418 21.4856 7.66243 21.4014 7.85667 21.2597C7.89579 21.2311 7.9455 21.1966 7.96713 21.1828C8.17794 21.0475 8.44443 20.9555 8.72198 20.9215C8.84257 20.9067 8.88998 20.8989 8.96362 20.88C9.18363 20.8239 9.32954 20.7452 9.69315 20.4866C9.90073 20.3389 9.99877 20.275 10.1005 20.2216C10.228 20.1544 10.355 20.1135 10.4848 20.0978C10.535 20.0918 10.6652 20.0918 10.715 20.0978C11.0482 20.1392 11.3869 20.3279 11.8173 20.7121C11.9291 20.8124 11.971 20.852 12.2131 21.0871C12.4534 21.3204 12.516 21.3788 12.6205 21.4658C13.0623 21.833 13.4821 22.012 13.901 22.012C14.1191 22.012 14.2802 21.9733 14.468 21.8772C14.5845 21.8178 14.6793 21.7492 14.7953 21.6411C15.0351 21.417 15.2334 21.2652 15.4788 21.1184C15.7199 20.9735 15.9478 20.8708 16.2428 20.7742C16.3786 20.7296 16.4398 20.7052 16.5443 20.655C16.692 20.5837 16.7841 20.5262 16.947 20.4033C17.0607 20.3178 17.1385 20.2667 17.2439 20.2078C17.6927 19.9584 18.2418 19.8608 18.7697 19.9368C18.8038 19.9418 19.2751 20.0247 19.8168 20.1208C20.3586 20.2175 20.8621 20.3063 20.9353 20.3187C21.1811 20.3601 21.3845 20.3863 21.5866 20.4024C21.6998 20.4112 21.9939 20.4098 22.1113 20.3997C22.4509 20.3711 22.7635 20.3063 23.0847 20.1977C23.308 20.1222 23.4709 20.0536 23.6923 19.9409C23.7659 19.9036 23.8262 19.8728 23.8272 19.8728C23.8281 19.8724 23.8239 19.8802 23.8184 19.8894Z"/>
  </mask>
  <path d="M13.3661 1.00088C12.5643 1.01008 11.7326 1.10257 10.9405 1.26959C8.34686 1.81761 6.03261 3.13498 4.273 5.0657C3.68339 5.71219 3.15822 6.42724 2.71406 7.18784C1.4345 9.37761 0.853642 11.855 1.03131 14.3691C1.0847 15.1256 1.21127 15.8977 1.40183 16.6307C2.11064 19.3524 3.68339 21.7272 5.89821 23.4204C6.66963 24.0103 7.53356 24.5225 8.43431 24.9232C10.5838 25.8808 12.9353 26.2075 15.2601 25.872C15.9864 25.7671 16.7132 25.5969 17.4142 25.3663C19.5052 24.6789 21.3509 23.4738 22.8067 21.8463C24.2184 20.2671 25.2222 18.3268 25.6899 16.2727C25.9633 15.0704 26.0558 13.852 25.9679 12.616C25.8763 11.3254 25.5817 10.0503 25.0975 8.84294C24.3413 6.95915 23.1773 5.32982 21.6556 4.0258C20.2891 2.8543 18.6477 1.97176 16.9148 1.47619C15.7614 1.14674 14.567 0.986612 13.3661 1.00088ZM14.0335 1.3699C14.1826 1.37773 14.2862 1.38371 14.3879 1.39107C16.4775 1.54337 18.4899 2.23956 20.2651 3.42394C22.108 4.65342 23.5561 6.34165 24.4941 8.3552C24.5756 8.53051 24.6299 8.6552 24.6257 8.65935C24.6207 8.66395 24.4591 8.69662 24.3551 8.71364C24.0863 8.75735 23.8608 8.77576 23.5841 8.77576C23.3632 8.77576 23.2173 8.76702 23.0111 8.74125C22.9319 8.73159 22.7469 8.70214 22.7345 8.69708C22.7303 8.6957 22.7142 8.66809 22.699 8.63634C22.5812 8.38971 22.4164 8.09982 22.062 7.51775C22.0091 7.43033 21.9318 7.30103 21.8903 7.23017C21.7748 7.03185 21.7173 6.95041 21.6284 6.85838C21.4784 6.70332 21.3233 6.62969 21.1452 6.62969C20.9864 6.62969 20.8524 6.68537 20.7314 6.80178C20.6122 6.91682 20.5312 7.06636 20.4962 7.23707C20.4529 7.44643 20.4916 7.68064 20.6195 7.98571C20.6324 8.017 20.643 8.04277 20.643 8.04415C20.643 8.04507 20.6237 8.04185 20.6007 8.03678C20.5344 8.02344 20.4276 8.00642 20.3415 7.99583C20.2407 7.98387 19.9977 7.97881 19.8928 7.98663C19.4656 8.0193 19.0348 8.16654 18.5235 8.45413C18.3449 8.55443 18.2786 8.59493 17.7502 8.92668C17.4947 9.08681 17.3235 9.18666 17.1454 9.27961C16.3441 9.69695 15.4424 9.95186 14.5122 10.0227C14.3157 10.0379 14.2218 10.0411 13.976 10.0411C13.7302 10.0411 13.6363 10.0379 13.4398 10.0227C12.6532 9.96244 11.89 9.76965 11.1913 9.454C10.825 9.28835 10.4811 9.10153 9.79901 8.6957C9.25727 8.3736 9.01517 8.23602 8.72658 8.08602C8.51854 7.97789 8.25803 7.85641 8.09509 7.79107C8.05781 7.77635 8.02743 7.763 8.02743 7.76162C8.02743 7.76024 8.05827 7.73586 8.09555 7.70779C8.31004 7.5449 8.51716 7.33554 8.64649 7.15149C8.80897 6.92004 8.91529 6.65362 8.93877 6.42079C8.94613 6.34441 8.94199 6.19717 8.92956 6.12539C8.88722 5.87738 8.77675 5.66203 8.60047 5.4858C8.50381 5.38963 8.40439 5.31831 8.28242 5.2585C8.19221 5.21432 8.13835 5.19408 8.04814 5.17107C7.94366 5.14484 7.87692 5.13656 7.76001 5.13656C7.55151 5.13702 7.41113 5.17291 7.15475 5.29163C6.69817 5.50329 6.28208 5.82998 5.93688 6.24778C5.69385 6.54181 5.49318 6.85792 5.28605 7.27158C5.21563 7.41284 5.21195 7.41882 5.1986 7.4202C5.15948 7.42389 4.96478 7.45656 4.87181 7.4745C4.24676 7.59644 3.65946 7.8219 3.11541 8.14814C2.86871 8.2963 2.63811 8.45965 2.42041 8.64048C2.38681 8.66809 2.35873 8.69017 2.35781 8.68925C2.35689 8.68833 2.37668 8.6414 2.40153 8.5848C3.09378 7.02633 4.1119 5.6174 5.3597 4.49007C6.42707 3.52563 7.65185 2.76457 8.99446 2.23081C10.2768 1.72053 11.6636 1.4242 13.0186 1.37036C13.0872 1.3676 13.1595 1.36484 13.1797 1.36392C13.2621 1.3607 13.9461 1.3653 14.0335 1.3699ZM7.83135 5.49777C7.99705 5.51341 8.15078 5.57645 8.28242 5.68228C8.32891 5.72001 8.40071 5.79639 8.43799 5.84793C8.47527 5.89992 8.5282 6.00391 8.54662 6.06235C8.58068 6.16818 8.59264 6.30438 8.57745 6.41435C8.55858 6.55009 8.49783 6.70884 8.41037 6.85286C8.23363 7.14412 7.95517 7.39766 7.50548 7.67604C7.41389 7.73264 7.33518 7.77865 7.07421 7.92819C6.76675 8.10442 6.60197 8.20703 6.44133 8.32161C6.14078 8.53603 5.92629 8.74953 5.76474 8.99478C5.72009 9.06242 5.70122 9.09463 5.5949 9.28329C5.51987 9.41673 5.45313 9.51197 5.39376 9.56995C5.31597 9.64587 5.20136 9.69879 5.11621 9.69879C4.91692 9.69833 4.85616 9.4747 4.95696 9.1089C4.98642 9.00169 5.1337 8.57652 5.23542 8.30458C5.47983 7.65119 5.72193 7.16207 5.99855 6.76313C6.2784 6.3596 6.56423 6.07339 6.92922 5.83136C7.08203 5.72967 7.25233 5.63765 7.40882 5.57185C7.56348 5.50651 7.69005 5.48442 7.83135 5.49777ZM21.1999 6.9955C21.2809 7.01713 21.3693 7.09167 21.454 7.21038C21.4876 7.25686 21.5286 7.32358 21.5958 7.43953C21.6248 7.48876 21.721 7.64935 21.8103 7.79659C21.9888 8.09108 22.1034 8.28526 22.1904 8.44262C22.4546 8.91794 22.5969 9.26304 22.6461 9.54924C22.6604 9.63345 22.6604 9.78023 22.6456 9.90125C22.5752 10.4865 22.3184 11.0244 21.9111 11.4422C21.7762 11.5803 21.6579 11.6626 21.5516 11.6916C21.5 11.7059 21.4379 11.7031 21.4015 11.6852C21.3666 11.6682 21.333 11.6304 21.3104 11.5835C21.28 11.52 21.2759 11.4984 21.2759 11.399C21.2763 11.2978 21.2805 11.2697 21.3247 11.0861C21.4029 10.7617 21.4397 10.5192 21.4577 10.2164C21.4637 10.1147 21.4637 9.82164 21.4577 9.72041C21.4333 9.30721 21.361 8.92438 21.2358 8.54385C21.1769 8.36532 21.1318 8.25121 21.025 8.0147C20.8837 7.70089 20.8474 7.58309 20.8423 7.42803C20.8405 7.36131 20.8414 7.34336 20.8492 7.30609C20.8796 7.16023 20.9735 7.03415 21.078 6.99826C21.1111 6.98676 21.1631 6.98584 21.1999 6.9955ZM5.03981 7.81224C5.03981 7.81454 5.0191 7.86838 4.99378 7.93141C4.87871 8.21992 4.66837 8.80981 4.61406 8.99708C4.49117 9.42133 4.54226 9.75032 4.75858 9.93162C4.8221 9.98499 4.91093 10.0292 4.98918 10.0462C5.03659 10.0563 5.13831 10.06 5.1894 10.0536C5.31367 10.0374 5.43748 9.98683 5.55071 9.90677C5.6041 9.86904 5.68833 9.78621 5.73896 9.72271C5.80386 9.64035 5.83332 9.59296 5.98336 9.32838C6.12053 9.08589 6.26643 8.91656 6.49887 8.73021C6.69586 8.57284 6.86709 8.46241 7.30296 8.2121C7.43046 8.13893 7.56071 8.06347 7.59247 8.04461C7.62423 8.02574 7.65277 8.0101 7.65599 8.0101C7.65875 8.0101 7.68913 8.02022 7.72319 8.03264C8.05781 8.15366 8.40117 8.31378 8.80943 8.53833C9.01839 8.65336 9.17765 8.74539 9.58038 8.98466C10.3882 9.46412 10.7541 9.66014 11.1821 9.84281C12.1901 10.2721 13.327 10.4608 14.4593 10.3862C15.4249 10.3232 16.356 10.0747 17.1956 9.65646C17.4878 9.51105 17.6282 9.42961 18.1368 9.10936C18.3964 8.94555 18.5465 8.85444 18.6776 8.7799C19.16 8.50612 19.525 8.3782 19.9144 8.34553C19.9991 8.33863 20.214 8.34231 20.2978 8.35244C20.4603 8.37222 20.6214 8.40489 20.7838 8.44998L20.8257 8.46195L20.8359 8.49002C20.9776 8.87331 21.0568 9.22807 21.0922 9.63897C21.1019 9.75354 21.106 10.0605 21.0991 10.1819C21.083 10.4732 21.0517 10.6789 20.9762 10.9964C20.9357 11.1662 20.9215 11.2458 20.9146 11.3396C20.8916 11.6705 21.0462 11.9447 21.3067 12.034C21.3882 12.062 21.4959 12.0694 21.5866 12.0528C21.7118 12.0303 21.8567 11.9608 21.9842 11.8623C22.1103 11.7648 22.288 11.5771 22.4187 11.4031C22.7055 11.0217 22.9016 10.5643 22.9812 10.0931C23.0125 9.90815 23.0249 9.71489 23.0139 9.59756C23.0014 9.47102 22.9674 9.31504 22.919 9.16733C22.9052 9.12454 22.8937 9.08911 22.8937 9.08911C22.8937 9.08911 22.9301 9.09371 22.9747 9.09923C23.3586 9.14709 23.7609 9.14893 24.1526 9.10476C24.3247 9.08543 24.5139 9.05414 24.6837 9.01733C24.7302 9.00721 24.7698 9.0003 24.7721 9.00261C24.7799 9.01043 24.8881 9.29755 24.9534 9.48253C25.2379 10.2924 25.4372 11.1381 25.5444 11.9903C25.5536 12.0648 25.5559 12.0947 25.5523 12.097C25.5435 12.103 25.2554 12.23 25.1003 12.2967C24.0817 12.7329 23.0493 13.1079 21.9925 13.4263C19.601 14.1464 17.1362 14.5569 14.648 14.6498C14.3198 14.6618 14.1923 14.6646 13.732 14.6669C12.8584 14.6715 12.1841 14.648 11.3547 14.585C8.03341 14.3323 4.72728 13.4977 1.68213 12.143C1.42484 12.0284 1.44647 12.0395 1.44831 12.0238C1.55602 11.1809 1.71711 10.464 1.97256 9.69419L2.02963 9.52164L2.1111 9.43191C2.45677 9.0523 2.86411 8.71824 3.30229 8.45597C3.8049 8.15458 4.32685 7.95258 4.91323 7.83248C5.05086 7.80442 5.03981 7.80626 5.03981 7.81224ZM1.58041 12.391C4.16437 13.5395 6.94717 14.3218 9.75299 14.6885C10.6975 14.8123 11.6769 14.8923 12.5906 14.9213C12.6716 14.9236 12.7691 14.9268 12.8069 14.9282C13.1466 14.9406 13.9622 14.9393 14.4086 14.9259C15.6946 14.8873 16.9148 14.7736 18.1667 14.5757C20.6817 14.1782 23.1791 13.442 25.5012 12.4145C25.5467 12.3943 25.5849 12.3786 25.5854 12.3791C25.5882 12.3814 25.6135 12.5981 25.6181 12.6588C25.6208 12.6887 25.6208 12.7177 25.619 12.7232C25.6167 12.7288 25.6176 12.7789 25.6213 12.8346C25.6531 13.3776 25.6448 13.9629 25.5978 14.5242C25.4823 15.8973 25.1316 17.2418 24.5585 18.5035C24.4448 18.7542 24.2377 19.1706 24.2156 19.1923C24.1981 19.2093 24.0803 19.2926 23.98 19.3593C23.5791 19.6243 23.1409 19.8231 22.7124 19.9345C22.503 19.9888 22.3078 20.0219 22.0883 20.0408C21.9644 20.0513 21.7099 20.0513 21.582 20.0408C21.2865 20.0164 21.2561 20.0113 19.8886 19.7684C19.34 19.6708 18.865 19.5871 18.8318 19.5825C18.523 19.5369 18.2031 19.5424 17.8952 19.599C17.4768 19.6759 17.0731 19.8535 16.7445 20.1047C16.6004 20.2147 16.5305 20.2598 16.4085 20.3205C16.3068 20.3711 16.2543 20.3918 16.1231 20.4346C15.9169 20.5023 15.7572 20.5672 15.5662 20.6619C15.1952 20.846 14.8795 21.0669 14.5647 21.3641C14.4965 21.4285 14.4533 21.464 14.3967 21.5021C14.2434 21.6061 14.0897 21.6531 13.9023 21.6531C13.5378 21.6531 13.1535 21.4667 12.7328 21.0866C12.6969 21.0544 12.5832 20.9454 12.4796 20.8442C12.0438 20.4194 11.8537 20.2547 11.6079 20.0877C11.0671 19.72 10.5815 19.6386 10.0876 19.8319C9.93065 19.8935 9.77968 19.9832 9.5026 20.1802C9.08835 20.4747 8.97881 20.5276 8.71277 20.5603C8.42234 20.5957 8.19221 20.6615 7.96253 20.7742C7.84148 20.834 7.7485 20.8902 7.65875 20.9583C7.47464 21.0977 7.27719 21.1759 7.02588 21.2086C6.88135 21.2274 6.63649 21.2297 6.43443 21.2136C6.0142 21.1805 3.95909 21.0024 3.95449 20.9988C3.9347 20.9817 3.68799 20.65 3.55543 20.4613C3.37225 20.2004 3.08826 19.7546 3.07123 19.7012C3.05512 19.6515 3.00173 19.5553 2.94465 19.4739C2.87791 19.3782 2.80841 19.2525 2.66941 18.9774C2.3486 18.341 2.09914 17.718 1.88281 17.0122C1.87498 16.9864 1.86854 16.9643 1.86854 16.9625C1.86854 16.9611 1.87729 16.9597 1.88833 16.9597C1.89938 16.9597 1.9095 16.9588 1.91089 16.9574C1.91227 16.956 1.90582 16.9349 1.89754 16.91C1.87636 16.8502 1.84369 16.7209 1.83402 16.6574L1.82573 16.6059L1.7972 16.6086L1.76866 16.6114L1.74979 16.5382C1.52886 15.692 1.39998 14.8031 1.36684 13.8975C1.35994 13.7148 1.36086 13.6711 1.36915 13.6679C1.37973 13.6642 1.39722 13.6224 1.40551 13.5819C1.42944 13.4645 1.41241 13.3177 1.37329 13.3081L1.36086 13.3049L1.36408 13.1756C1.36915 12.9547 1.38157 12.7279 1.40183 12.478C1.41379 12.3298 1.41471 12.3216 1.4207 12.3216C1.42254 12.3216 1.49434 12.3528 1.58041 12.391ZM23.8184 19.8894C23.783 19.9483 23.6872 20.0978 23.6233 20.1949C22.6176 21.7207 21.2929 22.9888 19.734 23.9178C18.204 24.8298 16.4693 25.4009 14.6848 25.5803C13.8558 25.6636 12.9961 25.6595 12.1717 25.5688C10.4641 25.3802 8.81771 24.8289 7.31815 23.9432C6.27103 23.3247 5.32702 22.5568 4.51464 21.6623C4.42765 21.5666 4.27576 21.394 4.27714 21.3922C4.2776 21.3917 4.73695 21.4304 5.29756 21.4782C6.61624 21.591 6.48644 21.5813 6.7244 21.5817C6.96927 21.5817 7.06822 21.573 7.24221 21.5357C7.47418 21.4856 7.66243 21.4014 7.85667 21.2597C7.89579 21.2311 7.9455 21.1966 7.96713 21.1828C8.17794 21.0475 8.44443 20.9555 8.72198 20.9215C8.84257 20.9067 8.88998 20.8989 8.96362 20.88C9.18363 20.8239 9.32954 20.7452 9.69315 20.4866C9.90073 20.3389 9.99877 20.275 10.1005 20.2216C10.228 20.1544 10.355 20.1135 10.4848 20.0978C10.535 20.0918 10.6652 20.0918 10.715 20.0978C11.0482 20.1392 11.3869 20.3279 11.8173 20.7121C11.9291 20.8124 11.971 20.852 12.2131 21.0871C12.4534 21.3204 12.516 21.3788 12.6205 21.4658C13.0623 21.833 13.4821 22.012 13.901 22.012C14.1191 22.012 14.2802 21.9733 14.468 21.8772C14.5845 21.8178 14.6793 21.7492 14.7953 21.6411C15.0351 21.417 15.2334 21.2652 15.4788 21.1184C15.7199 20.9735 15.9478 20.8708 16.2428 20.7742C16.3786 20.7296 16.4398 20.7052 16.5443 20.655C16.692 20.5837 16.7841 20.5262 16.947 20.4033C17.0607 20.3178 17.1385 20.2667 17.2439 20.2078C17.6927 19.9584 18.2418 19.8608 18.7697 19.9368C18.8038 19.9418 19.2751 20.0247 19.8168 20.1208C20.3586 20.2175 20.8621 20.3063 20.9353 20.3187C21.1811 20.3601 21.3845 20.3863 21.5866 20.4024C21.6998 20.4112 21.9939 20.4098 22.1113 20.3997C22.4509 20.3711 22.7635 20.3063 23.0847 20.1977C23.308 20.1222 23.4709 20.0536 23.6923 19.9409C23.7659 19.9036 23.8262 19.8728 23.8272 19.8728C23.8281 19.8724 23.8239 19.8802 23.8184 19.8894Z" fill="#5C4741"/>
  <path d="M13.3661 1.00088C12.5643 1.01008 11.7326 1.10257 10.9405 1.26959C8.34686 1.81761 6.03261 3.13498 4.273 5.0657C3.68339 5.71219 3.15822 6.42724 2.71406 7.18784C1.4345 9.37761 0.853642 11.855 1.03131 14.3691C1.0847 15.1256 1.21127 15.8977 1.40183 16.6307C2.11064 19.3524 3.68339 21.7272 5.89821 23.4204C6.66963 24.0103 7.53356 24.5225 8.43431 24.9232C10.5838 25.8808 12.9353 26.2075 15.2601 25.872C15.9864 25.7671 16.7132 25.5969 17.4142 25.3663C19.5052 24.6789 21.3509 23.4738 22.8067 21.8463C24.2184 20.2671 25.2222 18.3268 25.6899 16.2727C25.9633 15.0704 26.0558 13.852 25.9679 12.616C25.8763 11.3254 25.5817 10.0503 25.0975 8.84294C24.3413 6.95915 23.1773 5.32982 21.6556 4.0258C20.2891 2.8543 18.6477 1.97176 16.9148 1.47619C15.7614 1.14674 14.567 0.986612 13.3661 1.00088ZM14.0335 1.3699C14.1826 1.37773 14.2862 1.38371 14.3879 1.39107C16.4775 1.54337 18.4899 2.23956 20.2651 3.42394C22.108 4.65342 23.5561 6.34165 24.4941 8.3552C24.5756 8.53051 24.6299 8.6552 24.6257 8.65935C24.6207 8.66395 24.4591 8.69662 24.3551 8.71364C24.0863 8.75735 23.8608 8.77576 23.5841 8.77576C23.3632 8.77576 23.2173 8.76702 23.0111 8.74125C22.9319 8.73159 22.7469 8.70214 22.7345 8.69708C22.7303 8.6957 22.7142 8.66809 22.699 8.63634C22.5812 8.38971 22.4164 8.09982 22.062 7.51775C22.0091 7.43033 21.9318 7.30103 21.8903 7.23017C21.7748 7.03185 21.7173 6.95041 21.6284 6.85838C21.4784 6.70332 21.3233 6.62969 21.1452 6.62969C20.9864 6.62969 20.8524 6.68537 20.7314 6.80178C20.6122 6.91682 20.5312 7.06636 20.4962 7.23707C20.4529 7.44643 20.4916 7.68064 20.6195 7.98571C20.6324 8.017 20.643 8.04277 20.643 8.04415C20.643 8.04507 20.6237 8.04185 20.6007 8.03678C20.5344 8.02344 20.4276 8.00642 20.3415 7.99583C20.2407 7.98387 19.9977 7.97881 19.8928 7.98663C19.4656 8.0193 19.0348 8.16654 18.5235 8.45413C18.3449 8.55443 18.2786 8.59493 17.7502 8.92668C17.4947 9.08681 17.3235 9.18666 17.1454 9.27961C16.3441 9.69695 15.4424 9.95186 14.5122 10.0227C14.3157 10.0379 14.2218 10.0411 13.976 10.0411C13.7302 10.0411 13.6363 10.0379 13.4398 10.0227C12.6532 9.96244 11.89 9.76965 11.1913 9.454C10.825 9.28835 10.4811 9.10153 9.79901 8.6957C9.25727 8.3736 9.01517 8.23602 8.72658 8.08602C8.51854 7.97789 8.25803 7.85641 8.09509 7.79107C8.05781 7.77635 8.02743 7.763 8.02743 7.76162C8.02743 7.76024 8.05827 7.73586 8.09555 7.70779C8.31004 7.5449 8.51716 7.33554 8.64649 7.15149C8.80897 6.92004 8.91529 6.65362 8.93877 6.42079C8.94613 6.34441 8.94199 6.19717 8.92956 6.12539C8.88722 5.87738 8.77675 5.66203 8.60047 5.4858C8.50381 5.38963 8.40439 5.31831 8.28242 5.2585C8.19221 5.21432 8.13835 5.19408 8.04814 5.17107C7.94366 5.14484 7.87692 5.13656 7.76001 5.13656C7.55151 5.13702 7.41113 5.17291 7.15475 5.29163C6.69817 5.50329 6.28208 5.82998 5.93688 6.24778C5.69385 6.54181 5.49318 6.85792 5.28605 7.27158C5.21563 7.41284 5.21195 7.41882 5.1986 7.4202C5.15948 7.42389 4.96478 7.45656 4.87181 7.4745C4.24676 7.59644 3.65946 7.8219 3.11541 8.14814C2.86871 8.2963 2.63811 8.45965 2.42041 8.64048C2.38681 8.66809 2.35873 8.69017 2.35781 8.68925C2.35689 8.68833 2.37668 8.6414 2.40153 8.5848C3.09378 7.02633 4.1119 5.6174 5.3597 4.49007C6.42707 3.52563 7.65185 2.76457 8.99446 2.23081C10.2768 1.72053 11.6636 1.4242 13.0186 1.37036C13.0872 1.3676 13.1595 1.36484 13.1797 1.36392C13.2621 1.3607 13.9461 1.3653 14.0335 1.3699ZM7.83135 5.49777C7.99705 5.51341 8.15078 5.57645 8.28242 5.68228C8.32891 5.72001 8.40071 5.79639 8.43799 5.84793C8.47527 5.89992 8.5282 6.00391 8.54662 6.06235C8.58068 6.16818 8.59264 6.30438 8.57745 6.41435C8.55858 6.55009 8.49783 6.70884 8.41037 6.85286C8.23363 7.14412 7.95517 7.39766 7.50548 7.67604C7.41389 7.73264 7.33518 7.77865 7.07421 7.92819C6.76675 8.10442 6.60197 8.20703 6.44133 8.32161C6.14078 8.53603 5.92629 8.74953 5.76474 8.99478C5.72009 9.06242 5.70122 9.09463 5.5949 9.28329C5.51987 9.41673 5.45313 9.51197 5.39376 9.56995C5.31597 9.64587 5.20136 9.69879 5.11621 9.69879C4.91692 9.69833 4.85616 9.4747 4.95696 9.1089C4.98642 9.00169 5.1337 8.57652 5.23542 8.30458C5.47983 7.65119 5.72193 7.16207 5.99855 6.76313C6.2784 6.3596 6.56423 6.07339 6.92922 5.83136C7.08203 5.72967 7.25233 5.63765 7.40882 5.57185C7.56348 5.50651 7.69005 5.48442 7.83135 5.49777ZM21.1999 6.9955C21.2809 7.01713 21.3693 7.09167 21.454 7.21038C21.4876 7.25686 21.5286 7.32358 21.5958 7.43953C21.6248 7.48876 21.721 7.64935 21.8103 7.79659C21.9888 8.09108 22.1034 8.28526 22.1904 8.44262C22.4546 8.91794 22.5969 9.26304 22.6461 9.54924C22.6604 9.63345 22.6604 9.78023 22.6456 9.90125C22.5752 10.4865 22.3184 11.0244 21.9111 11.4422C21.7762 11.5803 21.6579 11.6626 21.5516 11.6916C21.5 11.7059 21.4379 11.7031 21.4015 11.6852C21.3666 11.6682 21.333 11.6304 21.3104 11.5835C21.28 11.52 21.2759 11.4984 21.2759 11.399C21.2763 11.2978 21.2805 11.2697 21.3247 11.0861C21.4029 10.7617 21.4397 10.5192 21.4577 10.2164C21.4637 10.1147 21.4637 9.82164 21.4577 9.72041C21.4333 9.30721 21.361 8.92438 21.2358 8.54385C21.1769 8.36532 21.1318 8.25121 21.025 8.0147C20.8837 7.70089 20.8474 7.58309 20.8423 7.42803C20.8405 7.36131 20.8414 7.34336 20.8492 7.30609C20.8796 7.16023 20.9735 7.03415 21.078 6.99826C21.1111 6.98676 21.1631 6.98584 21.1999 6.9955ZM5.03981 7.81224C5.03981 7.81454 5.0191 7.86838 4.99378 7.93141C4.87871 8.21992 4.66837 8.80981 4.61406 8.99708C4.49117 9.42133 4.54226 9.75032 4.75858 9.93162C4.8221 9.98499 4.91093 10.0292 4.98918 10.0462C5.03659 10.0563 5.13831 10.06 5.1894 10.0536C5.31367 10.0374 5.43748 9.98683 5.55071 9.90677C5.6041 9.86904 5.68833 9.78621 5.73896 9.72271C5.80386 9.64035 5.83332 9.59296 5.98336 9.32838C6.12053 9.08589 6.26643 8.91656 6.49887 8.73021C6.69586 8.57284 6.86709 8.46241 7.30296 8.2121C7.43046 8.13893 7.56071 8.06347 7.59247 8.04461C7.62423 8.02574 7.65277 8.0101 7.65599 8.0101C7.65875 8.0101 7.68913 8.02022 7.72319 8.03264C8.05781 8.15366 8.40117 8.31378 8.80943 8.53833C9.01839 8.65336 9.17765 8.74539 9.58038 8.98466C10.3882 9.46412 10.7541 9.66014 11.1821 9.84281C12.1901 10.2721 13.327 10.4608 14.4593 10.3862C15.4249 10.3232 16.356 10.0747 17.1956 9.65646C17.4878 9.51105 17.6282 9.42961 18.1368 9.10936C18.3964 8.94555 18.5465 8.85444 18.6776 8.7799C19.16 8.50612 19.525 8.3782 19.9144 8.34553C19.9991 8.33863 20.214 8.34231 20.2978 8.35244C20.4603 8.37222 20.6214 8.40489 20.7838 8.44998L20.8257 8.46195L20.8359 8.49002C20.9776 8.87331 21.0568 9.22807 21.0922 9.63897C21.1019 9.75354 21.106 10.0605 21.0991 10.1819C21.083 10.4732 21.0517 10.6789 20.9762 10.9964C20.9357 11.1662 20.9215 11.2458 20.9146 11.3396C20.8916 11.6705 21.0462 11.9447 21.3067 12.034C21.3882 12.062 21.4959 12.0694 21.5866 12.0528C21.7118 12.0303 21.8567 11.9608 21.9842 11.8623C22.1103 11.7648 22.288 11.5771 22.4187 11.4031C22.7055 11.0217 22.9016 10.5643 22.9812 10.0931C23.0125 9.90815 23.0249 9.71489 23.0139 9.59756C23.0014 9.47102 22.9674 9.31504 22.919 9.16733C22.9052 9.12454 22.8937 9.08911 22.8937 9.08911C22.8937 9.08911 22.9301 9.09371 22.9747 9.09923C23.3586 9.14709 23.7609 9.14893 24.1526 9.10476C24.3247 9.08543 24.5139 9.05414 24.6837 9.01733C24.7302 9.00721 24.7698 9.0003 24.7721 9.00261C24.7799 9.01043 24.8881 9.29755 24.9534 9.48253C25.2379 10.2924 25.4372 11.1381 25.5444 11.9903C25.5536 12.0648 25.5559 12.0947 25.5523 12.097C25.5435 12.103 25.2554 12.23 25.1003 12.2967C24.0817 12.7329 23.0493 13.1079 21.9925 13.4263C19.601 14.1464 17.1362 14.5569 14.648 14.6498C14.3198 14.6618 14.1923 14.6646 13.732 14.6669C12.8584 14.6715 12.1841 14.648 11.3547 14.585C8.03341 14.3323 4.72728 13.4977 1.68213 12.143C1.42484 12.0284 1.44647 12.0395 1.44831 12.0238C1.55602 11.1809 1.71711 10.464 1.97256 9.69419L2.02963 9.52164L2.1111 9.43191C2.45677 9.0523 2.86411 8.71824 3.30229 8.45597C3.8049 8.15458 4.32685 7.95258 4.91323 7.83248C5.05086 7.80442 5.03981 7.80626 5.03981 7.81224ZM1.58041 12.391C4.16437 13.5395 6.94717 14.3218 9.75299 14.6885C10.6975 14.8123 11.6769 14.8923 12.5906 14.9213C12.6716 14.9236 12.7691 14.9268 12.8069 14.9282C13.1466 14.9406 13.9622 14.9393 14.4086 14.9259C15.6946 14.8873 16.9148 14.7736 18.1667 14.5757C20.6817 14.1782 23.1791 13.442 25.5012 12.4145C25.5467 12.3943 25.5849 12.3786 25.5854 12.3791C25.5882 12.3814 25.6135 12.5981 25.6181 12.6588C25.6208 12.6887 25.6208 12.7177 25.619 12.7232C25.6167 12.7288 25.6176 12.7789 25.6213 12.8346C25.6531 13.3776 25.6448 13.9629 25.5978 14.5242C25.4823 15.8973 25.1316 17.2418 24.5585 18.5035C24.4448 18.7542 24.2377 19.1706 24.2156 19.1923C24.1981 19.2093 24.0803 19.2926 23.98 19.3593C23.5791 19.6243 23.1409 19.8231 22.7124 19.9345C22.503 19.9888 22.3078 20.0219 22.0883 20.0408C21.9644 20.0513 21.7099 20.0513 21.582 20.0408C21.2865 20.0164 21.2561 20.0113 19.8886 19.7684C19.34 19.6708 18.865 19.5871 18.8318 19.5825C18.523 19.5369 18.2031 19.5424 17.8952 19.599C17.4768 19.6759 17.0731 19.8535 16.7445 20.1047C16.6004 20.2147 16.5305 20.2598 16.4085 20.3205C16.3068 20.3711 16.2543 20.3918 16.1231 20.4346C15.9169 20.5023 15.7572 20.5672 15.5662 20.6619C15.1952 20.846 14.8795 21.0669 14.5647 21.3641C14.4965 21.4285 14.4533 21.464 14.3967 21.5021C14.2434 21.6061 14.0897 21.6531 13.9023 21.6531C13.5378 21.6531 13.1535 21.4667 12.7328 21.0866C12.6969 21.0544 12.5832 20.9454 12.4796 20.8442C12.0438 20.4194 11.8537 20.2547 11.6079 20.0877C11.0671 19.72 10.5815 19.6386 10.0876 19.8319C9.93065 19.8935 9.77968 19.9832 9.5026 20.1802C9.08835 20.4747 8.97881 20.5276 8.71277 20.5603C8.42234 20.5957 8.19221 20.6615 7.96253 20.7742C7.84148 20.834 7.7485 20.8902 7.65875 20.9583C7.47464 21.0977 7.27719 21.1759 7.02588 21.2086C6.88135 21.2274 6.63649 21.2297 6.43443 21.2136C6.0142 21.1805 3.95909 21.0024 3.95449 20.9988C3.9347 20.9817 3.68799 20.65 3.55543 20.4613C3.37225 20.2004 3.08826 19.7546 3.07123 19.7012C3.05512 19.6515 3.00173 19.5553 2.94465 19.4739C2.87791 19.3782 2.80841 19.2525 2.66941 18.9774C2.3486 18.341 2.09914 17.718 1.88281 17.0122C1.87498 16.9864 1.86854 16.9643 1.86854 16.9625C1.86854 16.9611 1.87729 16.9597 1.88833 16.9597C1.89938 16.9597 1.9095 16.9588 1.91089 16.9574C1.91227 16.956 1.90582 16.9349 1.89754 16.91C1.87636 16.8502 1.84369 16.7209 1.83402 16.6574L1.82573 16.6059L1.7972 16.6086L1.76866 16.6114L1.74979 16.5382C1.52886 15.692 1.39998 14.8031 1.36684 13.8975C1.35994 13.7148 1.36086 13.6711 1.36915 13.6679C1.37973 13.6642 1.39722 13.6224 1.40551 13.5819C1.42944 13.4645 1.41241 13.3177 1.37329 13.3081L1.36086 13.3049L1.36408 13.1756C1.36915 12.9547 1.38157 12.7279 1.40183 12.478C1.41379 12.3298 1.41471 12.3216 1.4207 12.3216C1.42254 12.3216 1.49434 12.3528 1.58041 12.391ZM23.8184 19.8894C23.783 19.9483 23.6872 20.0978 23.6233 20.1949C22.6176 21.7207 21.2929 22.9888 19.734 23.9178C18.204 24.8298 16.4693 25.4009 14.6848 25.5803C13.8558 25.6636 12.9961 25.6595 12.1717 25.5688C10.4641 25.3802 8.81771 24.8289 7.31815 23.9432C6.27103 23.3247 5.32702 22.5568 4.51464 21.6623C4.42765 21.5666 4.27576 21.394 4.27714 21.3922C4.2776 21.3917 4.73695 21.4304 5.29756 21.4782C6.61624 21.591 6.48644 21.5813 6.7244 21.5817C6.96927 21.5817 7.06822 21.573 7.24221 21.5357C7.47418 21.4856 7.66243 21.4014 7.85667 21.2597C7.89579 21.2311 7.9455 21.1966 7.96713 21.1828C8.17794 21.0475 8.44443 20.9555 8.72198 20.9215C8.84257 20.9067 8.88998 20.8989 8.96362 20.88C9.18363 20.8239 9.32954 20.7452 9.69315 20.4866C9.90073 20.3389 9.99877 20.275 10.1005 20.2216C10.228 20.1544 10.355 20.1135 10.4848 20.0978C10.535 20.0918 10.6652 20.0918 10.715 20.0978C11.0482 20.1392 11.3869 20.3279 11.8173 20.7121C11.9291 20.8124 11.971 20.852 12.2131 21.0871C12.4534 21.3204 12.516 21.3788 12.6205 21.4658C13.0623 21.833 13.4821 22.012 13.901 22.012C14.1191 22.012 14.2802 21.9733 14.468 21.8772C14.5845 21.8178 14.6793 21.7492 14.7953 21.6411C15.0351 21.417 15.2334 21.2652 15.4788 21.1184C15.7199 20.9735 15.9478 20.8708 16.2428 20.7742C16.3786 20.7296 16.4398 20.7052 16.5443 20.655C16.692 20.5837 16.7841 20.5262 16.947 20.4033C17.0607 20.3178 17.1385 20.2667 17.2439 20.2078C17.6927 19.9584 18.2418 19.8608 18.7697 19.9368C18.8038 19.9418 19.2751 20.0247 19.8168 20.1208C20.3586 20.2175 20.8621 20.3063 20.9353 20.3187C21.1811 20.3601 21.3845 20.3863 21.5866 20.4024C21.6998 20.4112 21.9939 20.4098 22.1113 20.3997C22.4509 20.3711 22.7635 20.3063 23.0847 20.1977C23.308 20.1222 23.4709 20.0536 23.6923 19.9409C23.7659 19.9036 23.8262 19.8728 23.8272 19.8728C23.8281 19.8724 23.8239 19.8802 23.8184 19.8894Z" stroke="#5C4741" stroke-width="0.4" mask="url(#path-2-outside-1_333_1193)"/>
  <path d="M16.395 5.37646C16.8807 5.35387 17.3016 5.15483 17.5044 4.81982L17.5493 4.73291C17.5775 4.67034 17.6019 4.59983 17.6206 4.5249L17.644 4.40967C17.6574 4.32874 17.6635 4.16349 17.6548 4.07861C17.6317 3.8573 17.5438 3.63771 17.4067 3.46338L17.4058 3.46436C17.2221 3.22911 16.9507 3.06705 16.6519 3.01318C16.5566 2.99624 16.4858 2.99072 16.3579 2.99072C16.0314 2.99072 15.6509 2.94534 15.2104 2.85107C15.0765 2.82237 15.0009 2.80503 14.6646 2.7251C14.1361 2.59937 13.9407 2.55741 13.6704 2.51221C13.2982 2.45012 12.9624 2.42622 12.6548 2.43994C12.3475 2.4536 12.1389 2.49548 11.9546 2.59033H11.9536C11.8438 2.64751 11.7476 2.72476 11.6792 2.81592C11.5395 3.00144 11.5113 3.25257 11.604 3.46729C11.6884 3.66299 11.8603 3.83335 12.0991 3.97705L12.1001 3.97803C12.1757 4.02316 12.489 4.18145 12.6772 4.27002C13.5747 4.69334 14.5259 5.02883 15.4761 5.25635C15.8807 5.3534 16.1384 5.38811 16.395 5.37646ZM16.1665 4.81396C15.9933 4.79946 15.8027 4.76286 15.4595 4.67627C14.6853 4.48027 13.9384 4.22093 13.2075 3.89697C13.0415 3.82319 12.8601 3.73816 12.7065 3.6626L12.3716 3.48682C12.2889 3.43477 12.2188 3.3765 12.1753 3.32959L12.1411 3.28662C12.1152 3.24672 12.1111 3.22946 12.1108 3.20264V3.18506C12.1119 3.18262 12.114 3.17904 12.1177 3.17139L12.1411 3.13818C12.1736 3.10383 12.2336 3.06892 12.3384 3.0415L12.4897 3.01318C12.5485 3.00609 12.6169 3.00147 12.6997 2.99854C12.7265 2.99761 12.752 2.99636 12.771 2.99561C12.7822 2.99516 12.796 2.99526 12.8052 2.99463H12.8403C12.8646 2.99531 12.8971 2.99642 12.9321 2.99756C13.1944 3.00655 13.4251 3.0338 13.7407 3.09326H13.7417C13.941 3.13049 14.111 3.16818 14.5562 3.27393C15.1183 3.40796 15.3577 3.4564 15.6538 3.49756C15.8941 3.53127 16.0598 3.54469 16.3169 3.55029C16.4285 3.55284 16.488 3.55523 16.5327 3.56104C16.5739 3.56642 16.6041 3.57427 16.6558 3.59229C16.8291 3.65273 16.9716 3.78113 17.0444 3.93896C17.1 4.05907 17.1158 4.21126 17.0835 4.36279C17.0728 4.41272 17.0487 4.48606 17.0386 4.50635L17.0376 4.50732C16.9709 4.64093 16.7806 4.76181 16.4897 4.80713L16.4888 4.80811C16.4636 4.8121 16.405 4.81552 16.3374 4.81689C16.2708 4.81825 16.2044 4.81701 16.1665 4.81396Z" fill="#5C4741" stroke="#5C4741" stroke-width="0.2"/>
  <path d="M11.4331 6.99707L11.6187 6.97754L11.8198 6.93945C12.0086 6.89203 12.16 6.81577 12.2739 6.70312C12.3324 6.64544 12.3789 6.58127 12.4126 6.50977L12.4419 6.43555C12.4481 6.4163 12.4536 6.3973 12.4565 6.37305C12.4592 6.35153 12.4595 6.32792 12.4595 6.29883C12.4595 6.23549 12.4584 6.21138 12.4448 6.15723C12.4316 6.10467 12.4101 6.04569 12.3843 5.98828L12.2964 5.82617C12.207 5.69089 12.0706 5.55905 11.9331 5.47363V5.47266C11.8168 5.40102 11.6706 5.34315 11.5376 5.31543V5.31445C11.4242 5.29107 11.2476 5.28539 11.1353 5.30078C10.8634 5.33781 10.5884 5.45748 10.3774 5.63184C10.1607 5.81125 10.0183 6.03795 9.99365 6.27344C9.98258 6.38138 10.0001 6.48632 10.0464 6.58496L10.0972 6.67188C10.116 6.69814 10.1374 6.72286 10.1636 6.74902H10.1646C10.2847 6.86856 10.4523 6.93757 10.6646 6.9707H10.6655C10.854 6.99971 10.9982 7.00815 11.2241 7.00488C11.3114 7.00371 11.3743 7.0011 11.4331 6.99707ZM10.9478 6.44043C10.8896 6.43679 10.8392 6.43003 10.771 6.41992C10.69 6.40794 10.6338 6.39258 10.5972 6.37598C10.5662 6.36186 10.5566 6.35044 10.5542 6.34668L10.5522 6.3418C10.5522 6.33828 10.5528 6.33314 10.5532 6.3252C10.554 6.31091 10.5552 6.30479 10.5562 6.30078C10.5572 6.29638 10.559 6.29019 10.5649 6.27539L10.6128 6.19238C10.6752 6.1068 10.7792 6.01635 10.9028 5.95312C10.9891 5.90902 11.1021 5.8713 11.1938 5.85645H11.1948C11.2165 5.85298 11.259 5.85128 11.3071 5.85254C11.3555 5.85381 11.3985 5.85763 11.4204 5.8623C11.6383 5.90851 11.8088 6.0516 11.8872 6.24902L11.897 6.28223C11.8844 6.30045 11.8601 6.32477 11.813 6.34863C11.759 6.37595 11.6847 6.40014 11.5913 6.41602C11.4624 6.43779 11.3691 6.44388 11.1704 6.44434L10.9478 6.44043Z" fill="#5C4741" stroke="#5C4741" stroke-width="0.2"/>
  <path d="M12.125 13.5C12.8525 13.8409 13.5833 13.9676 14.2695 13.8672C14.4386 13.8423 14.5598 13.8102 14.6904 13.752C14.837 13.6866 15.0032 13.5845 15.1514 13.4756C15.2986 13.3674 15.435 13.2468 15.5195 13.1406C15.7119 12.899 15.8141 12.589 15.8018 12.2832C15.7835 11.8188 15.539 11.4001 15.1504 11.1768V11.1758C14.9654 11.0701 14.7695 11.0161 14.5303 11.002H14.5293C14.4331 10.9967 14.3266 10.9972 14.2275 11.0029C13.7067 11.0335 13.1522 11.2111 12.5117 11.5459C12.3459 11.6326 12.1619 11.7335 12.0078 11.8223C11.8564 11.9095 11.7272 11.9894 11.6738 12.0303C11.6477 12.0501 11.6129 12.0817 11.583 12.1113C11.5534 12.1407 11.5213 12.1747 11.5029 12.1992C11.3384 12.4185 11.3244 12.6963 11.458 12.9443C11.5823 13.1755 11.7968 13.3464 12.125 13.5ZM13.5635 13.3281C13.3232 13.3067 13.0794 13.2571 12.835 13.1787L12.5898 13.0908C12.2848 12.9704 12.1273 12.8754 12.0195 12.7637C11.9184 12.6587 11.9189 12.5947 11.9355 12.5596C11.9491 12.5319 11.993 12.4838 12.0811 12.4287L12.3867 12.252C12.5171 12.1787 12.658 12.1014 12.7539 12.0508C13.4399 11.6902 14.0079 11.5339 14.4902 11.5605C14.5854 11.5658 14.6366 11.5739 14.6953 11.5898C14.8642 11.635 15.0075 11.7374 15.1074 11.8867C15.1975 12.0213 15.2397 12.1603 15.2402 12.3252L15.2334 12.4404C15.2183 12.5511 15.1793 12.649 15.1152 12.7441V12.7451C15.0518 12.8398 14.9732 12.9149 14.7773 13.0547H14.7764C14.6345 13.1565 14.485 13.238 14.3818 13.2725C14.2132 13.3285 13.8604 13.3547 13.5635 13.3281Z" fill="#5C4741" stroke="#5C4741" stroke-width="0.2"/>
  <path d="M5.86963 17.8335C5.87312 17.8333 5.88052 17.8328 5.88916 17.8306C5.89199 17.8298 5.89952 17.8283 5.90869 17.8237L5.93994 17.7993L5.94385 17.7954L5.94287 17.7944C5.94922 17.7862 5.95347 17.7792 5.95459 17.7769C5.95606 17.7738 5.95698 17.7704 5.95752 17.769C5.95855 17.7664 5.96006 17.7644 5.96045 17.7632C5.96125 17.7607 5.96192 17.7581 5.9624 17.7563C5.96344 17.7526 5.96409 17.7476 5.96533 17.7427C5.96786 17.7327 5.97134 17.7193 5.9751 17.7036C5.98272 17.6719 5.99285 17.6299 6.00244 17.5884C6.01203 17.5468 6.02089 17.5047 6.02783 17.4731C6.03126 17.4576 6.03461 17.444 6.03662 17.4341C6.03759 17.4293 6.03886 17.4244 6.03955 17.4204C6.03986 17.4186 6.04013 17.4151 6.04053 17.4116C6.04071 17.41 6.04146 17.4059 6.0415 17.4009C6.04152 17.3986 6.0408 17.3923 6.03955 17.3843C6.03893 17.3803 6.03809 17.3727 6.03467 17.3638C6.03218 17.3573 6.02314 17.3454 6.00928 17.3315L6.01221 17.3286C6.00959 17.326 6.00595 17.3248 6.00342 17.3228V17.3218L6.00244 17.3228C5.9938 17.3159 5.9878 17.3105 5.98682 17.3101C5.98309 17.3082 5.97944 17.3077 5.97803 17.3071C5.97512 17.306 5.97305 17.3045 5.97217 17.3042C5.97011 17.3035 5.96791 17.3034 5.96729 17.3032L5.95557 17.3003C5.94926 17.2988 5.93983 17.296 5.9292 17.2935C5.90793 17.2884 5.87876 17.2822 5.84717 17.2749C5.78866 17.2612 5.59252 17.2129 5.40967 17.1675C5.31826 17.1448 5.23055 17.1224 5.16553 17.106C5.16123 17.1049 5.15692 17.1041 5.15283 17.103C5.15351 17.1004 5.15506 17.0979 5.15576 17.0952C5.17187 17.0327 5.19354 16.9491 5.21533 16.8657C5.23712 16.7823 5.2593 16.6989 5.27588 16.6362C5.27683 16.6327 5.27692 16.6289 5.27783 16.6255C5.30312 16.6318 5.3321 16.6391 5.36279 16.647C5.46195 16.6724 5.59239 16.7049 5.69873 16.731C5.75178 16.744 5.79964 16.7549 5.83447 16.7632C5.85154 16.7672 5.86586 16.7706 5.87646 16.7729C5.88175 16.7741 5.88715 16.7751 5.89111 16.7759C5.89299 16.7763 5.89562 16.7774 5.89795 16.7778C5.89912 16.778 5.90095 16.7776 5.90283 16.7778C5.90413 16.778 5.90916 16.7788 5.91553 16.7788L5.94775 16.7739C5.9751 16.7648 5.99037 16.7464 5.99268 16.7437C6.00013 16.735 6.00452 16.7266 6.00635 16.7231C6.01037 16.7155 6.01353 16.7081 6.01514 16.7036C6.01868 16.6937 6.02214 16.681 6.02588 16.6675C6.03362 16.6395 6.04402 16.5977 6.05713 16.5425V16.5415C6.06744 16.4977 6.07728 16.4573 6.08447 16.4272C6.08808 16.4122 6.09112 16.3999 6.09326 16.3911L6.09619 16.3794L6.09814 16.3325C6.09539 16.3177 6.09003 16.3035 6.08154 16.2915C6.06834 16.2729 6.05192 16.2629 6.04541 16.2593C6.03171 16.2516 6.01647 16.2474 6.00732 16.2446L5.89795 16.2163C5.81071 16.195 5.55031 16.1302 5.41748 16.0962C5.4187 16.0915 5.4201 16.0866 5.42139 16.0815C5.4374 16.0193 5.45854 15.9366 5.47998 15.854C5.50139 15.7716 5.52332 15.6894 5.53955 15.6274C5.5403 15.6246 5.54078 15.6214 5.5415 15.6187C5.55407 15.6219 5.56777 15.6248 5.58154 15.6284C5.70463 15.6603 5.88633 15.7051 6.0376 15.7417C6.11331 15.76 6.18216 15.7761 6.23193 15.7876C6.25674 15.7933 6.27776 15.7981 6.29248 15.8013C6.29948 15.8028 6.30588 15.8042 6.31104 15.8052C6.31337 15.8056 6.31702 15.8066 6.3208 15.8071C6.32236 15.8073 6.32727 15.808 6.33252 15.8081C6.33506 15.8082 6.3411 15.808 6.34814 15.8071C6.35191 15.8066 6.35875 15.8049 6.3667 15.8022C6.37141 15.8007 6.37902 15.7953 6.38916 15.7886L6.39111 15.7905C6.39347 15.7889 6.3949 15.7863 6.39697 15.7847C6.39958 15.7826 6.40316 15.7814 6.40576 15.7788L6.40381 15.7778C6.41382 15.768 6.42033 15.7602 6.42139 15.7583C6.42411 15.7536 6.4264 15.7495 6.42725 15.7476C6.42889 15.7438 6.42972 15.7401 6.43018 15.7388C6.43119 15.7358 6.43264 15.7326 6.43311 15.731C6.43412 15.7274 6.43491 15.7227 6.43604 15.7183C6.43839 15.709 6.44122 15.6962 6.44482 15.6812C6.45221 15.6503 6.46256 15.6078 6.47314 15.562L6.50439 15.4204C6.50663 15.4084 6.50902 15.3933 6.50928 15.3794C6.50937 15.3732 6.50967 15.3572 6.50342 15.3394C6.49543 15.3168 6.47547 15.2868 6.43701 15.2749L6.43604 15.2759C6.43005 15.2741 6.42259 15.2708 6.41943 15.27C6.4127 15.2684 6.4036 15.2667 6.39307 15.2642C6.37159 15.2591 6.34234 15.2527 6.31201 15.2456L6.31299 15.2446C6.16132 15.2089 5.77098 15.1129 5.61084 15.0708C5.49284 15.04 5.27171 14.9807 5.25244 14.9751L5.25146 14.9761C5.20952 14.9638 5.17738 14.9813 5.16553 14.9897C5.153 14.9988 5.1448 15.0085 5.14209 15.0122C5.13609 15.0205 5.13248 15.0283 5.13135 15.0308C5.12837 15.0371 5.12611 15.0438 5.12451 15.0483C5.12098 15.0584 5.11716 15.0726 5.11182 15.0903C5.10087 15.1267 5.08337 15.1852 5.05908 15.272C5.01042 15.4459 4.9305 15.7385 4.80127 16.2104C4.71363 16.5312 4.63366 16.8234 4.57568 17.0356C4.54674 17.1416 4.52363 17.2278 4.50732 17.2876C4.49917 17.3175 4.49213 17.341 4.48779 17.3569C4.48563 17.3649 4.48405 17.3713 4.48291 17.3755L4.47998 17.3882C4.47916 17.3919 4.47607 17.4069 4.479 17.4253C4.48694 17.475 4.52589 17.4953 4.53174 17.4985C4.54616 17.5064 4.56473 17.5116 4.57373 17.5142C4.60163 17.5222 4.65928 17.5384 4.77686 17.5698C4.9669 17.6207 5.23201 17.6872 5.44971 17.7407C5.55846 17.7675 5.65622 17.7908 5.72705 17.8071C5.7621 17.8152 5.79109 17.8223 5.81201 17.8267C5.82213 17.8287 5.83181 17.8303 5.83936 17.8315C5.84281 17.8321 5.84845 17.8331 5.854 17.8335C5.85638 17.8337 5.86251 17.8339 5.86963 17.8335ZM5.30127 16.5396C5.30184 16.5375 5.30208 16.5362 5.30225 16.5356V16.5366C5.30213 16.537 5.30196 16.5387 5.30127 16.5405L5.30029 16.5425C5.30056 16.5415 5.30104 16.5404 5.30127 16.5396Z" fill="#5C4741" stroke="#5C4741" stroke-width="0.2"/>
  <path d="M21.2412 17.8662C21.4868 17.8369 21.7167 17.7568 21.9111 17.6289C22.1665 17.4613 22.3799 17.1734 22.4648 16.8818C22.4832 16.8188 22.495 16.763 22.502 16.7061L22.5088 16.5205C22.5059 16.4084 22.4989 16.3507 22.4727 16.2451C22.3778 15.8621 22.1357 15.5674 21.7705 15.3848H21.7695C21.6044 15.3025 21.4552 15.2581 21.2793 15.2402H21.2783C21.2086 15.2336 21.0865 15.2351 21.0137 15.2432C20.6567 15.2828 20.3441 15.4342 20.1211 15.6807C19.9265 15.8958 19.8041 16.1422 19.7627 16.4111C19.7565 16.4519 19.7543 16.5184 19.7539 16.5791C19.7536 16.6401 19.7551 16.7073 19.7607 16.748L19.7861 16.8887C19.8598 17.206 20.0292 17.4516 20.3018 17.6357C20.4962 17.7669 20.6995 17.8429 20.9307 17.8691L21.084 17.874C21.143 17.8735 21.2026 17.8707 21.2412 17.8662ZM21.4014 17.2725C21.2232 17.3346 21.0476 17.3425 20.8867 17.2998C20.7486 17.263 20.6143 17.1856 20.5127 17.082C20.3875 16.9544 20.314 16.7701 20.3145 16.5732C20.3149 16.4286 20.3562 16.2951 20.4443 16.1611C20.569 15.9718 20.7374 15.8557 20.96 15.8057L21.1133 15.7861C21.1658 15.7837 21.2171 15.7849 21.2578 15.791L21.2588 15.792C21.3784 15.8096 21.4937 15.8534 21.6006 15.9238C21.7529 16.0248 21.8514 16.1519 21.9033 16.3135C21.934 16.4092 21.944 16.4844 21.9404 16.5781C21.9384 16.6278 21.9329 16.6722 21.9219 16.7158L21.8721 16.8496C21.7743 17.0521 21.6087 17.2004 21.4014 17.2725Z" fill="#5C4741" stroke="#5C4741" stroke-width="0.2"/>
  <path d="M6.84131 18.0303C6.98389 18.0303 7.09546 18.0047 7.22021 17.9414C7.40498 17.8478 7.53983 17.7024 7.60498 17.5176L7.63623 17.4023C7.64255 17.366 7.64502 17.3289 7.64502 17.2861C7.64498 17.1775 7.62729 17.104 7.57861 17.002C7.5138 16.8666 7.41905 16.756 7.25342 16.6074V16.6064C7.15648 16.5196 7.08372 16.4446 7.03271 16.3809C6.9808 16.3159 6.9562 16.2685 6.94775 16.2363C6.93948 16.2044 6.94752 16.1593 6.98193 16.1123C7.01574 16.0661 7.06861 16.0278 7.12939 16.0117C7.17082 16.0009 7.18526 15.9977 7.39111 16.0381C7.51056 16.0613 7.60524 16.0796 7.67041 16.0918C7.70293 16.0979 7.72889 16.1024 7.74658 16.1055C7.75528 16.107 7.7632 16.1085 7.76904 16.1094C7.77161 16.1097 7.77517 16.11 7.77881 16.1104C7.78036 16.1105 7.78527 16.1114 7.79053 16.1113C7.79297 16.1113 7.79883 16.1106 7.80615 16.1094C7.80995 16.1087 7.81771 16.1071 7.82666 16.1035C7.8325 16.1012 7.84441 16.0934 7.85791 16.0801L7.86084 16.082C7.86309 16.0798 7.86389 16.0764 7.86572 16.0742C7.86672 16.073 7.86866 16.0726 7.86963 16.0713H7.86768C7.87438 16.0626 7.87874 16.056 7.87939 16.0547C7.88147 16.0505 7.88265 16.0467 7.8833 16.0449C7.88463 16.0413 7.88585 16.0384 7.88623 16.0371C7.8871 16.0341 7.88776 16.0311 7.88818 16.0293C7.88911 16.0253 7.89011 16.0205 7.89111 16.0156C7.8932 16.0055 7.89591 15.9916 7.89893 15.9756C7.90498 15.9435 7.91291 15.9014 7.92041 15.8594C7.92789 15.8174 7.93555 15.7751 7.94092 15.7432C7.94356 15.7274 7.94525 15.7132 7.94678 15.7031C7.94752 15.6982 7.94824 15.6926 7.94873 15.6885C7.94894 15.6867 7.94949 15.6838 7.94971 15.6807C7.9498 15.6792 7.94987 15.6749 7.94971 15.6699C7.94964 15.6677 7.94996 15.6622 7.94873 15.6553C7.9481 15.6518 7.94665 15.6452 7.94385 15.6377C7.94232 15.6336 7.93609 15.628 7.93018 15.6191L7.93311 15.6172C7.93112 15.6142 7.9274 15.6129 7.92529 15.6104C7.92342 15.6081 7.92267 15.6048 7.92041 15.6025L7.91846 15.6045C7.90781 15.5938 7.90009 15.5861 7.89795 15.585C7.89257 15.582 7.88726 15.5799 7.88525 15.5791L7.86572 15.5732C7.85982 15.5719 7.85228 15.57 7.84424 15.5684C7.82774 15.565 7.80518 15.561 7.78174 15.5566L7.51221 15.5039C7.4136 15.4849 7.30854 15.466 7.28271 15.4629L7.28369 15.4619C7.22675 15.4543 7.12079 15.4559 7.06494 15.4648C6.8907 15.4923 6.73001 15.5757 6.60303 15.7021C6.50399 15.8007 6.44175 15.9111 6.40479 16.0498L6.40381 16.0508C6.38388 16.127 6.37717 16.2025 6.38525 16.2734C6.40937 16.4869 6.521 16.6609 6.72998 16.8535C6.84606 16.9604 6.92683 17.043 6.98193 17.1094C7.03736 17.1761 7.06186 17.2214 7.07178 17.2549C7.08152 17.2886 7.06823 17.3536 7.01221 17.4072L6.96338 17.4453C6.92916 17.4661 6.89184 17.4783 6.85498 17.4824H6.79932L6.34814 17.3887C6.3112 17.3805 6.27681 17.3733 6.25146 17.3682C6.23895 17.3656 6.22753 17.3638 6.21924 17.3623C6.2154 17.3616 6.21074 17.3609 6.20654 17.3604C6.20467 17.3601 6.20061 17.3596 6.1958 17.3594C6.19379 17.3593 6.18772 17.3585 6.18018 17.3594C6.17662 17.3598 6.16828 17.361 6.15869 17.3643C6.1532 17.3661 6.13765 17.3743 6.12158 17.3906L6.12061 17.3887C6.11797 17.3913 6.11681 17.3949 6.11475 17.3975C6.11296 17.3997 6.1096 17.4008 6.10791 17.4033L6.10986 17.4043C6.10622 17.4097 6.10267 17.4128 6.10205 17.4141C6.10016 17.4178 6.09875 17.4213 6.09814 17.4229C6.09694 17.4259 6.09561 17.4285 6.09521 17.4297C6.09441 17.4322 6.09371 17.4349 6.09326 17.4365L6.08154 17.4873C6.07437 17.5179 6.06433 17.5591 6.05518 17.5996C6.04608 17.6399 6.03759 17.6806 6.03076 17.7119C6.02737 17.7274 6.02407 17.7409 6.02197 17.751C6.02094 17.756 6.01974 17.761 6.01904 17.7646C6.01872 17.7663 6.01838 17.7687 6.01807 17.7705C6.01791 17.7714 6.01826 17.773 6.01807 17.7744C6.0179 17.7756 6.0173 17.7797 6.01709 17.7842L6.01611 17.7881H6.01709C6.01709 17.801 6.01929 17.818 6.02783 17.835C6.03594 17.851 6.04656 17.8621 6.05518 17.8691C6.06998 17.8811 6.08566 17.8866 6.09131 17.8887C6.10521 17.8938 6.12437 17.8987 6.14795 17.9043C6.19828 17.9162 6.29252 17.9365 6.46631 17.9736L6.70361 18.0215C6.75462 18.0293 6.78933 18.0303 6.84131 18.0303Z" fill="#5C4741" stroke="#5C4741" stroke-width="0.2"/>
  <path d="M8.16992 18.2871C8.17286 18.2868 8.1785 18.2852 8.18555 18.2832C8.18988 18.2819 8.21014 18.2762 8.22852 18.2578L8.24023 18.2471L8.24805 18.2324C8.25123 18.2261 8.25247 18.2201 8.25293 18.2188C8.25361 18.2167 8.25462 18.2148 8.25488 18.2139C8.25538 18.2121 8.25571 18.2106 8.25586 18.21C8.25614 18.2088 8.25574 18.2076 8.25586 18.207C8.25607 18.206 8.25672 18.2047 8.25684 18.2041C8.25709 18.2027 8.25751 18.201 8.25781 18.1992C8.25846 18.1955 8.25965 18.1901 8.26074 18.1836C8.26295 18.1704 8.26573 18.151 8.26953 18.1279C8.27713 18.0818 8.28758 18.0185 8.29883 17.9492V17.9482C8.30843 17.8877 8.31708 17.8318 8.32422 17.7881C8.45708 17.8067 8.56247 17.8086 8.6748 17.792C8.88309 17.7609 9.0749 17.6701 9.24023 17.5254C9.45883 17.3336 9.57366 17.0683 9.57422 16.7646L9.56836 16.6357C9.56392 16.5968 9.55618 16.5594 9.54492 16.5146C9.48104 16.2602 9.30291 16.0135 9.07812 15.8672C8.97446 15.7997 8.82694 15.7413 8.70215 15.7168C8.67086 15.7107 8.55216 15.69 8.44238 15.6719C8.38706 15.6628 8.33285 15.654 8.29199 15.6475C8.27191 15.6443 8.2548 15.6416 8.24219 15.6396C8.23588 15.6387 8.22986 15.6383 8.22559 15.6377C8.22367 15.6374 8.22166 15.6369 8.21973 15.6367C8.2187 15.6366 8.21644 15.6369 8.21484 15.6367C8.21357 15.6366 8.20946 15.6357 8.20508 15.6357C8.15112 15.636 8.12221 15.6737 8.1123 15.6914C8.10277 15.7085 8.09937 15.7254 8.09766 15.7354V15.7344C8.09473 15.7502 8.00267 16.2872 7.8916 16.9297C7.83569 17.2533 7.78459 17.548 7.74805 17.7617C7.72978 17.8686 7.71522 17.9555 7.70508 18.0156C7.70004 18.0455 7.696 18.0689 7.69336 18.085C7.69204 18.093 7.69113 18.1 7.69043 18.1045C7.69011 18.1065 7.6897 18.1086 7.68945 18.1104C7.68934 18.1111 7.68866 18.1126 7.68848 18.1143V18.1299C7.68863 18.1327 7.68872 18.1401 7.68945 18.1445C7.69156 18.1533 7.70457 18.18 7.71777 18.1963C7.73195 18.2104 7.74691 18.2173 7.74805 18.2178C7.75226 18.2196 7.75626 18.2202 7.75781 18.2207C7.76104 18.2217 7.76347 18.2233 7.76465 18.2236C7.76741 18.2243 7.77065 18.2242 7.77246 18.2246C7.77631 18.2254 7.78102 18.2266 7.78613 18.2275C7.79701 18.2296 7.81262 18.2323 7.83008 18.2354C7.86505 18.2415 7.91112 18.2492 7.95703 18.2568C8.00299 18.2645 8.04912 18.2718 8.08398 18.2773C8.10115 18.2801 8.11622 18.2826 8.12695 18.2842C8.13222 18.285 8.1377 18.2856 8.1416 18.2861C8.14329 18.2863 8.14577 18.2869 8.14844 18.2871H8.16992ZM8.41309 17.248C8.41696 17.2231 8.42171 17.1942 8.42676 17.1621C8.44411 17.0518 8.46764 16.9043 8.49121 16.7568C8.51479 16.6092 8.53848 16.4606 8.55664 16.3486C8.56277 16.3108 8.56765 16.2771 8.57227 16.249C8.57506 16.2496 8.57807 16.2494 8.58105 16.25L8.66406 16.2725C8.7415 16.2991 8.80451 16.3405 8.8623 16.3994C8.93827 16.4775 8.98658 16.5673 9.00586 16.6621C9.01026 16.6839 9.01335 16.7158 9.01367 16.749L9.00781 16.8428C8.98657 16.9715 8.91246 17.0865 8.7998 17.1621C8.6961 17.2314 8.59923 17.2582 8.48145 17.2539C8.46361 17.2532 8.43857 17.2509 8.41309 17.248Z" fill="#5C4741" stroke="#5C4741" stroke-width="0.2"/>
  <path d="M18.3516 18.4014C18.3557 18.401 18.361 18.4 18.3662 18.3994C18.377 18.3982 18.392 18.3968 18.4092 18.3945L18.665 18.3594C18.6823 18.3568 18.6972 18.3543 18.708 18.3525C18.7134 18.3517 18.7187 18.3503 18.7227 18.3496C18.7244 18.3493 18.7269 18.3492 18.7295 18.3486C18.7307 18.3484 18.734 18.3477 18.7373 18.3467C18.7389 18.3462 18.7423 18.3453 18.7461 18.3438L18.7744 18.3262L18.7803 18.3213C18.8009 18.3005 18.8061 18.2765 18.8066 18.2744C18.8083 18.2678 18.8084 18.2624 18.8086 18.2598C18.8091 18.2545 18.8096 18.2494 18.8096 18.248C18.8095 18.2448 18.8087 18.2422 18.8086 18.2412C18.8084 18.2386 18.8078 18.2354 18.8076 18.2334C18.8071 18.2291 18.8065 18.2231 18.8057 18.2168C18.8039 18.2037 18.802 18.1852 18.7988 18.1631L18.7725 17.9863C18.7628 17.9228 18.7536 17.8637 18.7471 17.8184C18.7625 17.8155 18.7783 17.8137 18.793 17.8105C18.8312 17.8024 18.8722 17.791 18.9072 17.7812C18.9244 17.8082 18.9467 17.8414 18.9697 17.8779V17.8789C19.0197 17.9574 19.0732 18.0406 19.1143 18.1045C19.1347 18.1363 19.1525 18.1632 19.165 18.1826L19.1846 18.2139C19.1851 18.2147 19.1859 18.2159 19.1865 18.2168L19.1885 18.2188C19.1891 18.2196 19.1908 18.2226 19.1934 18.2256L19.1992 18.2324L19.207 18.2383C19.2239 18.2518 19.2409 18.2567 19.2451 18.2578C19.2514 18.2594 19.2571 18.2595 19.2598 18.2598C19.2647 18.2602 19.2687 18.2608 19.2705 18.2607C19.2743 18.2607 19.2781 18.2599 19.2793 18.2598C19.2819 18.2595 19.2844 18.259 19.2861 18.2588C19.2901 18.2583 19.2954 18.2576 19.3008 18.2568C19.3119 18.2552 19.3276 18.2529 19.3457 18.25C19.3823 18.2441 19.4315 18.236 19.4814 18.2275L19.7119 18.1875L19.7129 18.1865C19.7261 18.1832 19.7618 18.1713 19.7812 18.1318C19.7979 18.0979 19.7905 18.0666 19.7881 18.0576C19.7829 18.0383 19.7722 18.0202 19.7666 18.0107C19.7516 17.9854 19.7233 17.9415 19.6748 17.8682C19.6152 17.7783 19.5219 17.6372 19.4678 17.5537L19.4102 17.4658C19.483 17.3821 19.543 17.2925 19.5869 17.2012L19.6279 17.1025C19.7025 16.8862 19.6948 16.6375 19.6113 16.4141L19.5713 16.3203C19.52 16.2143 19.4622 16.1361 19.377 16.0508V16.0498C19.2534 15.9271 19.1055 15.8359 18.9434 15.7803L18.7764 15.7363C18.7387 15.7294 18.6768 15.7265 18.6211 15.7256C18.5648 15.7247 18.5019 15.726 18.4619 15.7314V15.7324C18.4316 15.7362 18.3335 15.7493 18.2422 15.7627H18.2412C18.1479 15.7769 18.0551 15.7903 18.0342 15.793H18.0332C18.0205 15.7947 17.9957 15.7983 17.9766 15.8057C17.9638 15.8106 17.939 15.8226 17.9219 15.8506C17.9059 15.8767 17.9062 15.9021 17.9062 15.9082V15.9111C17.9065 15.9176 17.9069 15.9266 17.9072 15.9287C17.9079 15.934 17.9089 15.942 17.9102 15.9512C17.9126 15.9696 17.9164 15.9961 17.9209 16.0293C17.93 16.0959 17.9435 16.1903 17.959 16.3027C17.99 16.5277 18.0309 16.8262 18.0723 17.124C18.1136 17.4218 18.1552 17.7192 18.1865 17.9424C18.2022 18.054 18.2153 18.1476 18.2246 18.2129C18.2292 18.2455 18.2328 18.2713 18.2354 18.2891L18.2393 18.3164C18.2394 18.3172 18.2399 18.3187 18.2402 18.3203C18.2404 18.321 18.2406 18.3237 18.2412 18.3262C18.2416 18.3278 18.2434 18.3317 18.2441 18.334C18.246 18.3385 18.2536 18.3507 18.2617 18.3623L18.2607 18.3643C18.2615 18.3652 18.2629 18.3654 18.2637 18.3662C18.2651 18.3681 18.2661 18.3703 18.2676 18.3721L18.2686 18.3701C18.2825 18.3843 18.2954 18.3923 18.3008 18.3945C18.3088 18.3978 18.3159 18.3987 18.3193 18.3994C18.3263 18.4008 18.332 18.4013 18.334 18.4014H18.3516ZM18.6533 17.1885L18.5303 16.3662C18.5253 16.3327 18.5204 16.3022 18.5166 16.2764C18.5272 16.2749 18.5364 16.2731 18.543 16.2725H18.5439C18.5835 16.2682 18.6519 16.2712 18.6963 16.2803V16.2812C18.7951 16.3013 18.8935 16.3527 18.9688 16.4268V16.4277C19.1273 16.583 19.1609 16.8318 19.0527 17.0137V17.0146C18.9764 17.1437 18.8622 17.2293 18.7246 17.2656V17.2666C18.7133 17.2695 18.6909 17.2727 18.666 17.2773C18.6621 17.2517 18.6583 17.2216 18.6533 17.1885ZM18.667 17.8301L18.665 17.8311C18.6581 17.8327 18.6524 17.8329 18.6494 17.833C18.6547 17.8329 18.6605 17.8306 18.667 17.8301Z" fill="#5C4741" stroke="#5C4741" stroke-width="0.2"/>
  <path d="M16.5322 18.6045C16.5422 18.6039 16.5564 18.6027 16.5723 18.6016C16.604 18.5992 16.6459 18.5954 16.6885 18.5918C16.7313 18.5881 16.7755 18.5844 16.8105 18.5811C16.8423 18.578 16.8746 18.5748 16.8877 18.5723L16.8867 18.5713L16.9014 18.5693L16.9941 18.5547L16.9844 18.4619L16.96 18.2119C16.9541 18.1491 16.9487 18.0896 16.9443 18.0439C17.0905 18.0274 17.2116 17.9952 17.334 17.9355C17.452 17.8778 17.5515 17.8056 17.6387 17.7129L17.71 17.6309C17.8636 17.4368 17.9386 17.2176 17.9297 16.9746C17.9252 16.8572 17.9035 16.7471 17.8652 16.6426L17.8213 16.5391C17.7657 16.4268 17.7096 16.3522 17.6123 16.2578C17.3826 16.0352 17.103 15.9283 16.7881 15.9443H16.7871C16.7577 15.9461 16.6346 15.9565 16.5215 15.9668C16.4644 15.972 16.4088 15.9774 16.3672 15.9814C16.3465 15.9834 16.3289 15.985 16.3164 15.9863C16.3103 15.987 16.3049 15.9878 16.3008 15.9883L16.2871 15.9902C16.2858 15.9905 16.2823 15.991 16.2783 15.9922C16.2764 15.9928 16.2729 15.9943 16.2686 15.9961C16.2658 15.9973 16.2545 16.0023 16.2432 16.0117L16.2363 16.0176L16.2373 16.0186C16.2218 16.039 16.2093 16.0681 16.208 16.0752V16.1025C16.2084 16.1075 16.2093 16.1144 16.21 16.123C16.2113 16.141 16.2132 16.1673 16.2158 16.2002C16.2212 16.2665 16.2289 16.3614 16.2383 16.4746C16.2571 16.7011 16.2822 17.003 16.3076 17.3047C16.3331 17.6064 16.3595 17.9082 16.3789 18.1348C16.3886 18.248 16.3965 18.3429 16.4023 18.4092C16.4052 18.4422 16.4075 18.4683 16.4092 18.4863C16.41 18.4953 16.4106 18.5028 16.4111 18.5078C16.4114 18.5102 16.4119 18.5127 16.4121 18.5146C16.4122 18.5155 16.4119 18.517 16.4121 18.5186C16.4122 18.5192 16.4126 18.5211 16.4131 18.5234C16.4134 18.5249 16.4144 18.5298 16.415 18.5322C16.4169 18.5378 16.4261 18.5573 16.4355 18.5703L16.4473 18.582C16.4659 18.5975 16.4857 18.602 16.4883 18.6025C16.4939 18.6039 16.4989 18.6043 16.501 18.6045H16.5322ZM16.8848 17.4102C16.8737 17.299 16.8599 17.1504 16.8457 17.002C16.8315 16.8537 16.817 16.7051 16.8066 16.5928C16.8031 16.5549 16.8004 16.5213 16.7979 16.4932C16.8167 16.4926 16.8377 16.4907 16.8584 16.4912C16.9001 16.4922 16.9326 16.4952 16.9463 16.498H16.9473C17.1066 16.5312 17.2478 16.6395 17.3174 16.7783L17.3516 16.874C17.368 16.9421 17.3713 17.0158 17.3604 17.084L17.334 17.1797C17.3108 17.2349 17.2668 17.2989 17.2148 17.3506L17.2139 17.3516C17.159 17.406 17.0968 17.4454 17.0244 17.4707L16.9482 17.4912C16.9343 17.4939 16.9144 17.4963 16.8936 17.499C16.891 17.4734 16.8881 17.4435 16.8848 17.4102Z" fill="#5C4741" stroke="#5C4741" stroke-width="0.2"/>
  <path d="M11.1353 18.6074H11.1362C11.3814 18.5744 11.5933 18.4893 11.7847 18.3447L11.8882 18.2588C12.1166 18.0531 12.2497 17.8009 12.2896 17.4951V17.4941C12.2997 17.4142 12.3011 17.2568 12.2925 17.1787V17.1777C12.2711 16.9946 12.2139 16.8261 12.1196 16.6689L12.0132 16.5156C11.988 16.4836 11.9458 16.4388 11.9028 16.3955L11.7856 16.2861C11.6912 16.211 11.5785 16.1428 11.4722 16.0977C11.2807 16.0162 11.0406 15.9774 10.8237 15.9902C10.7 15.9982 10.5589 16.0265 10.4478 16.0674C10.3222 16.1136 10.1661 16.202 10.0552 16.29L10.0542 16.291C9.98298 16.3483 9.85675 16.4768 9.80518 16.5459C9.63731 16.7718 9.55227 17.0376 9.55225 17.3271C9.55225 17.6611 9.68247 17.9589 9.93311 18.2109C10.1596 18.4388 10.4303 18.5663 10.769 18.6084C10.8619 18.62 11.0464 18.6191 11.1353 18.6074ZM10.9468 18.0693C10.7255 18.0693 10.5411 18.0041 10.3901 17.877C10.1969 17.713 10.0997 17.4841 10.1196 17.2559L10.1421 17.1182C10.1746 16.9881 10.2378 16.8789 10.3325 16.7842L10.4048 16.7188C10.5769 16.5785 10.7826 16.5169 11.0044 16.5391C11.2093 16.5597 11.3772 16.6421 11.5171 16.7881C11.6585 16.936 11.7324 17.1078 11.7368 17.292L11.7339 17.3711C11.7139 17.6139 11.6053 17.7969 11.3901 17.9404C11.2613 18.0262 11.1141 18.0693 10.9468 18.0693Z" fill="#5C4741" stroke="#5C4741" stroke-width="0.2"/>
  <path d="M14.6074 18.7144H14.6084C14.6445 18.7126 14.7251 18.7099 14.7871 18.7085H14.7881C14.8196 18.7076 14.8494 18.7068 14.8721 18.7056C14.8833 18.7049 14.894 18.7044 14.9023 18.7036C14.9063 18.7032 14.9112 18.7024 14.916 18.7017C14.9183 18.7013 14.923 18.7009 14.9277 18.6997C14.9301 18.6991 14.9341 18.6974 14.9385 18.6958C14.9413 18.6947 14.9468 18.6913 14.9541 18.687L14.9551 18.688C14.9563 18.6873 14.9569 18.6848 14.958 18.6841C14.959 18.6834 14.9609 18.6839 14.9619 18.6831L14.9609 18.6821C14.9824 18.6669 14.9928 18.6491 14.9951 18.644C14.9989 18.6358 15.0011 18.6278 15.002 18.6245C15.0035 18.618 15.0036 18.6124 15.0039 18.6099C15.0045 18.604 15.0048 18.5977 15.0049 18.5933C15.0051 18.5837 15.0051 18.5706 15.0049 18.5542C15.0044 18.5207 15.0034 18.4682 15.001 18.3911L14.9727 17.5718C14.9621 17.2905 14.9522 17.0331 14.9453 16.8452C14.9419 16.7513 14.9394 16.6742 14.9375 16.6206H14.9365C14.999 16.618 15.0793 16.6142 15.1465 16.6108C15.1835 16.609 15.2171 16.6064 15.2412 16.605C15.2532 16.6043 15.2633 16.6045 15.2705 16.604C15.274 16.6038 15.2774 16.6033 15.2803 16.603C15.2815 16.6029 15.2837 16.6024 15.2861 16.6021C15.2871 16.6019 15.2911 16.6019 15.2949 16.6011C15.2968 16.6007 15.3013 16.599 15.3066 16.5972C15.3094 16.5962 15.315 16.5947 15.3213 16.5913C15.3241 16.5898 15.3315 16.5819 15.3418 16.5718L15.3447 16.5737C15.3479 16.5706 15.3492 16.5661 15.3516 16.563C15.353 16.5612 15.3561 16.5601 15.3574 16.5581H15.3555C15.3605 16.5507 15.3649 16.5455 15.3662 16.5425C15.3689 16.5363 15.3703 16.5307 15.3711 16.5278C15.3725 16.5224 15.3728 16.518 15.373 16.5161C15.3736 16.512 15.374 16.5083 15.374 16.5073V16.4868C15.3737 16.4786 15.3727 16.4666 15.3721 16.4526C15.3707 16.4242 15.3685 16.3848 15.3662 16.3423C15.3639 16.3002 15.3618 16.2599 15.3604 16.229C15.3596 16.2136 15.3598 16.2005 15.3594 16.1909C15.359 16.1811 15.3584 16.1769 15.3584 16.1763V16.1567L15.3555 16.0562L15.2559 16.0591L15.2197 16.0601V16.061C15.1957 16.0612 15.1473 16.0623 15.1123 16.064C14.9039 16.0749 14.4908 16.0887 14.1982 16.0942L14.0312 16.0972L13.9326 16.0991L13.9336 16.1978L13.9346 16.3696L13.9365 16.4927C13.9368 16.5085 13.9371 16.522 13.9375 16.5317C13.9377 16.5364 13.9382 16.5413 13.9385 16.5454C13.9386 16.5472 13.938 16.5506 13.9385 16.5542C13.9387 16.5557 13.9402 16.5598 13.9414 16.5649C13.942 16.5673 13.9434 16.5736 13.9463 16.5806C13.9474 16.5835 13.9566 16.6082 13.9824 16.6255L14.0088 16.6372C14.0133 16.6386 14.0175 16.6397 14.0195 16.6401C14.0234 16.6409 14.027 16.641 14.0283 16.6411C14.0309 16.6414 14.0331 16.642 14.0342 16.6421H14.1045C14.1448 16.6417 14.2004 16.6413 14.2607 16.6401C14.305 16.6395 14.3464 16.6386 14.3809 16.6382C14.3823 16.6891 14.3845 16.7588 14.3867 16.8423C14.3917 17.0279 14.3979 17.2837 14.4053 17.5649C14.4124 17.8464 14.4197 18.1041 14.4248 18.2925C14.4274 18.3867 14.4291 18.4641 14.4307 18.5181C14.4314 18.545 14.4321 18.5667 14.4326 18.5815C14.433 18.5926 14.433 18.607 14.4336 18.6128L14.4346 18.6167L14.4365 18.6323L14.4502 18.7212L14.6074 18.7144Z" fill="#5C4741" stroke="#5C4741" stroke-width="0.2"/>
  <path d="M13.6978 18.729C13.7472 18.7285 13.7963 18.7279 13.8335 18.7271C13.852 18.7266 13.8686 18.7256 13.8804 18.7251C13.8859 18.7249 13.8913 18.7245 13.896 18.7241C13.8981 18.724 13.9019 18.7237 13.9058 18.7231C13.9075 18.7229 13.9123 18.7225 13.9175 18.7212C13.92 18.7206 13.9252 18.7197 13.9312 18.7173C13.9336 18.7163 13.9482 18.7089 13.9634 18.6938L13.9644 18.6948L13.9653 18.6919C13.9662 18.691 13.9684 18.6909 13.9692 18.6899L13.9673 18.688C13.9885 18.6636 13.9932 18.6387 13.9937 18.6333C13.9946 18.6235 13.993 18.615 13.9927 18.6118C13.9919 18.6054 13.9913 18.6003 13.9907 18.5981C13.9895 18.5936 13.9875 18.5893 13.9868 18.5874C13.9853 18.583 13.9838 18.5774 13.9819 18.5728C13.9781 18.563 13.9727 18.5499 13.9663 18.5347L13.9146 18.4146C13.8641 18.2997 13.8088 18.1716 13.7661 18.0718C13.7482 18.0298 13.7313 17.9932 13.7192 17.9644C13.7772 17.9166 13.8503 17.8451 13.8921 17.7935C14.0107 17.6467 14.0796 17.4862 14.106 17.2954L14.1118 17.1567C14.1114 17.1037 14.1083 17.05 14.103 17.0142C14.0709 16.7864 13.9773 16.6 13.813 16.4302C13.6556 16.2676 13.4759 16.1657 13.2651 16.1196L13.1724 16.103C13.1377 16.0986 13.0345 16.094 12.9272 16.0913H12.9263L12.6753 16.0845L12.6069 16.0815L12.5093 16.0776L12.5034 16.1753L12.5005 16.2231C12.4972 16.2811 12.4243 18.5623 12.4243 18.5962V18.7075L12.521 18.7104L12.6372 18.7134H12.6382C12.701 18.7147 12.7852 18.7179 12.8247 18.7192L12.896 18.7212L12.9976 18.7251L12.9995 18.6235L13.0034 18.4614V18.4604C13.0048 18.3717 13.0069 18.2561 13.0083 18.2026V18.2007L13.0366 18.1997C13.0875 18.1985 13.1352 18.194 13.1714 18.1909C13.1818 18.2158 13.1951 18.2456 13.2085 18.2778C13.2439 18.363 13.2954 18.4844 13.3228 18.5483L13.3716 18.6636L13.3931 18.7153L13.4487 18.7241L13.4702 18.7271H13.4712C13.4819 18.7285 13.4981 18.7289 13.5073 18.729H13.6978ZM13.0229 17.5776C13.0246 17.4716 13.0273 17.3256 13.0308 17.1655C13.0351 16.9475 13.0384 16.7509 13.0405 16.644C13.0906 16.6459 13.1178 16.648 13.1353 16.6519L13.2065 16.6724C13.2747 16.6969 13.3341 16.7345 13.3931 16.7905C13.4741 16.8682 13.5247 16.9595 13.5444 17.0591C13.5471 17.0728 13.5498 17.1111 13.5493 17.1577C13.5489 17.2043 13.5455 17.2425 13.5425 17.2563C13.5233 17.3459 13.4843 17.418 13.4126 17.4917C13.3508 17.5551 13.2841 17.5989 13.2065 17.6255L13.1245 17.646C13.101 17.6504 13.0758 17.6536 13.021 17.6538C13.0213 17.6318 13.0225 17.606 13.0229 17.5776ZM13.6958 17.9058H13.6968C13.6969 17.9062 13.6971 17.9083 13.6978 17.9106V17.9116C13.6967 17.9089 13.6962 17.9069 13.6958 17.9058ZM13.8784 18.5249C13.8799 18.5247 13.881 18.5249 13.8813 18.5249C13.8804 18.525 13.8785 18.5257 13.8755 18.5259C13.877 18.5256 13.878 18.525 13.8784 18.5249Z" fill="#5C4741" stroke="#5C4741" stroke-width="0.2"/>
  <path d="M12.5244 23.9902H12.5254C12.7605 23.9656 12.9927 23.9061 13.1465 23.8271C13.2562 23.7709 13.339 23.6858 13.3926 23.5742C13.4113 23.5359 13.4261 23.5011 13.4346 23.4609C13.4428 23.4221 13.4453 23.3828 13.4453 23.3359L13.4424 23.252C13.4398 23.2265 13.4347 23.2065 13.4287 23.1846C13.3774 22.9983 13.2416 22.8498 13.0605 22.7891H13.0596C13.0211 22.7764 12.9855 22.7687 12.9453 22.7646L12.8037 22.7617C12.6663 22.766 12.5398 22.7527 12.4131 22.7197L12.4141 22.7188C12.3036 22.6893 12.2197 22.6562 12.0791 22.584C11.9407 22.5128 11.839 22.4496 11.5137 22.2324C11.2866 22.0805 11.1919 22.0197 11.0742 21.9521C10.9822 21.8993 10.7942 21.8063 10.7109 21.7725H10.71C10.5401 21.7046 10.3591 21.6562 10.1709 21.6289L9.98047 21.6084C9.94023 21.6057 9.8778 21.6044 9.81543 21.6045L9.65137 21.6094C9.40027 21.627 9.20614 21.7116 9.04102 21.8809C8.96201 21.9619 8.90806 22.0436 8.86328 22.1484H8.8623C8.69044 22.5517 8.82175 23.0125 9.18164 23.251L9.25488 23.2949C9.33501 23.337 9.4437 23.3789 9.65918 23.457L9.94824 23.5557C10.6298 23.7775 11.3591 23.9331 11.999 23.9902C12.0495 23.9949 12.1619 23.9962 12.2666 23.9961C12.3706 23.996 12.4797 23.9947 12.5244 23.9902ZM12.0039 23.4297C11.4739 23.3765 10.8849 23.2564 10.3203 23.0869C10.1042 23.0217 9.70336 22.882 9.55664 22.8203C9.44621 22.7736 9.38222 22.699 9.35645 22.5977C9.34515 22.5531 9.34564 22.4748 9.3584 22.4268H9.35938C9.39518 22.2898 9.4921 22.1996 9.62012 22.1758C9.67611 22.1652 9.83395 22.1595 9.94336 22.167L10.1309 22.1885C10.3109 22.2179 10.4735 22.2728 10.6484 22.3604H10.6494C10.8018 22.4363 10.8944 22.4931 11.2412 22.7236L11.6016 22.958C11.6891 23.0115 11.7575 23.0481 11.8457 23.0928L12.0068 23.1699C12.0548 23.1904 12.1008 23.2073 12.1562 23.2256L12.3115 23.2705C12.4637 23.3081 12.611 23.3237 12.7871 23.3223H12.8848C12.8854 23.3233 12.8859 23.3264 12.8867 23.3311C12.8847 23.3322 12.8821 23.3334 12.8789 23.335C12.8711 23.3387 12.8607 23.3432 12.8467 23.3486C12.7305 23.3937 12.5943 23.4228 12.4355 23.4355C12.354 23.4419 12.0963 23.4388 12.0039 23.4297Z" fill="#5C4741" stroke="#5C4741" stroke-width="0.2"/>
</svg>
